<?xml version="1.0" encoding="utf-8"?>
<!-- Generator: Adobe Illustrator 26.0.0, SVG Export Plug-In . SVG Version: 6.00 Build 0)  -->
<svg version="1.1" id="Layer_1" xmlns="http://www.w3.org/2000/svg" xmlns:xlink="http://www.w3.org/1999/xlink" x="0px" y="0px"
	 viewBox="0 0 841.89 595.28" style="enable-background:new 0 0 841.89 595.28;" xml:space="preserve">
<style type="text/css">
	.st0{fill:#AA935F;}
	.st1{fill:#707071;}
</style>
<g>
	<g>
		<g>
			<path class="st0" d="M46.13,313.43h9.92c4.51,0,8.24,0.89,11.19,2.68c2.96,1.79,5.11,4.09,6.46,6.91
				c1.35,2.82,2.03,5.8,2.03,8.94c0,3.51-0.82,6.6-2.45,9.29c-1.64,2.69-3.82,4.76-6.56,6.21c-2.74,1.45-5.71,2.18-8.92,2.18H46.13
				V313.43z M56.85,344.94c2.67,0,5.06-0.53,7.16-1.58c2.1-1.05,3.75-2.58,4.93-4.58c1.19-2,1.78-4.39,1.78-7.16
				c0-2.84-0.62-5.28-1.85-7.31c-1.24-2.04-2.88-3.58-4.93-4.63c-2.05-1.05-4.27-1.58-6.64-1.58h-6.31v26.85H56.85z"/>
			<path class="st0" d="M107.43,313.43v4.66H88.75v11.02h16.68v4.66H88.75v11.17h19.38v4.71H83.89v-36.21H107.43z"/>
			<path class="st0" d="M148.16,313.43v37.42h-0.15l-26.6-27l0.1,25.79h-4.91v-37.32h0.25l26.55,27.3l-0.1-26.2H148.16z"/>
			<path class="st0" d="M179.96,313.43v4.66h-9.72v31.55h-4.86v-31.55h-9.47v-4.66H179.96z"/>
			<path class="st0" d="M203.85,340.13h-13.92l-3.86,9.52h-4.81l15.83-37.72h0.3l15.83,37.72h-5.61L203.85,340.13z M202.2,335.92
				l-5.16-13.22l-5.36,13.22H202.2z"/>
			<path class="st0" d="M224.84,313.43v31.51h18.43v4.71h-23.29v-36.21H224.84z"/>
			<path class="st0" d="M266.96,313.43h9.92c4.51,0,8.24,0.89,11.19,2.68c2.96,1.79,5.11,4.09,6.46,6.91
				c1.35,2.82,2.03,5.8,2.03,8.94c0,3.51-0.82,6.6-2.45,9.29c-1.64,2.69-3.82,4.76-6.56,6.21c-2.74,1.45-5.71,2.18-8.92,2.18h-11.67
				V313.43z M277.68,344.94c2.67,0,5.06-0.53,7.16-1.58c2.1-1.05,3.75-2.58,4.93-4.58c1.19-2,1.78-4.39,1.78-7.16
				c0-2.84-0.62-5.28-1.85-7.31c-1.24-2.04-2.88-3.58-4.93-4.63c-2.05-1.05-4.27-1.58-6.64-1.58h-6.31v26.85H277.68z"/>
			<path class="st0" d="M309.59,313.43v36.21h-4.86v-36.21H309.59z"/>
			<path class="st0" d="M338.99,340.13h-13.92l-3.86,9.52h-4.81l15.83-37.72h0.3l15.83,37.72h-5.61L338.99,340.13z M337.33,335.92
				l-5.16-13.22l-5.36,13.22H337.33z"/>
			<path class="st0" d="M376.98,348.94c-2.35,0.73-4.53,1.1-6.54,1.1c-3.77,0-7.1-0.78-9.97-2.33c-2.87-1.55-5.08-3.68-6.64-6.39
				c-1.55-2.7-2.33-5.74-2.33-9.12c0-3.94,0.83-7.35,2.5-10.24c1.67-2.89,3.92-5.1,6.76-6.64c2.84-1.54,5.94-2.3,9.32-2.3
				c2.04,0,3.96,0.24,5.76,0.73c1.8,0.48,3.42,1.13,4.86,1.93l-1.6,4.46c-1.07-0.6-2.41-1.13-4.03-1.58
				c-1.62-0.45-3.08-0.68-4.38-0.68c-2.8,0-5.28,0.57-7.44,1.7c-2.15,1.14-3.82,2.75-4.98,4.86c-1.17,2.1-1.75,4.56-1.75,7.36
				c0,2.6,0.58,4.93,1.75,6.96c1.17,2.04,2.82,3.61,4.96,4.73c2.14,1.12,4.57,1.68,7.31,1.68c1.27,0,2.5-0.13,3.71-0.38
				c1.2-0.25,2.2-0.61,3.01-1.08v-7.16h-7.21v-4.66h12.12v14.63C381.06,347.41,379.33,348.21,376.98,348.94z"/>
			<path class="st0" d="M422.98,313.43v37.42h-0.15l-26.6-27l0.1,25.79h-4.91v-37.32h0.25l26.55,27.3l-0.1-26.2H422.98z"/>
			<path class="st0" d="M433.65,322.35c1.67-2.84,3.91-5.1,6.74-6.79c2.82-1.69,5.9-2.53,9.24-2.53c3.31,0,6.38,0.84,9.22,2.53
				c2.84,1.69,5.1,3.95,6.79,6.79c1.69,2.84,2.53,5.91,2.53,9.22c0,3.34-0.84,6.43-2.5,9.27c-1.67,2.84-3.93,5.08-6.79,6.74
				c-2.86,1.65-5.94,2.48-9.24,2.48c-3.34,0-6.43-0.82-9.27-2.45c-2.84-1.64-5.08-3.86-6.74-6.69c-1.65-2.82-2.48-5.94-2.48-9.34
				C431.15,328.26,431.98,325.19,433.65,322.35z M437.96,338.47c1.2,2.1,2.85,3.77,4.93,5.01c2.09,1.24,4.37,1.85,6.84,1.85
				c2.47,0,4.73-0.61,6.79-1.83c2.05-1.22,3.67-2.89,4.86-5.01c1.19-2.12,1.78-4.43,1.78-6.94c0-2.5-0.6-4.83-1.8-6.96
				c-1.2-2.14-2.84-3.82-4.91-5.06c-2.07-1.23-4.34-1.85-6.81-1.85c-2.47,0-4.74,0.63-6.81,1.88c-2.07,1.25-3.7,2.95-4.88,5.08
				c-1.19,2.14-1.78,4.46-1.78,6.96C436.16,334.08,436.76,336.37,437.96,338.47z"/>
			<path class="st0" d="M490.9,318.19c-1.47-0.43-2.86-0.65-4.16-0.65c-1.97,0-3.53,0.44-4.68,1.33c-1.15,0.89-1.73,2.1-1.73,3.63
				c0,1.5,0.68,2.73,2.03,3.68c1.35,0.95,3.28,1.9,5.78,2.83c1.87,0.67,3.45,1.39,4.73,2.18c1.29,0.78,2.35,1.87,3.21,3.26
				c0.85,1.39,1.28,3.15,1.28,5.28c0,1.94-0.48,3.69-1.45,5.26c-0.97,1.57-2.35,2.8-4.13,3.71c-1.79,0.9-3.88,1.35-6.29,1.35
				c-2.24,0-4.39-0.36-6.46-1.08c-2.07-0.72-3.89-1.63-5.46-2.73l2.15-3.86c1.24,0.94,2.72,1.73,4.46,2.38
				c1.74,0.65,3.36,0.98,4.86,0.98c1.94,0,3.63-0.5,5.08-1.5c1.45-1,2.18-2.49,2.18-4.46c0-1.67-0.61-3-1.83-3.98
				c-1.22-0.98-2.93-1.91-5.13-2.78c-2.04-0.77-3.73-1.52-5.08-2.25c-1.35-0.73-2.51-1.74-3.48-3.03c-0.97-1.28-1.45-2.9-1.45-4.83
				c0-2.84,0.99-5.13,2.98-6.89c1.99-1.75,4.57-2.68,7.74-2.78c3.91,0,7.53,0.97,10.87,2.91l-1.85,3.76
				C493.76,319.19,492.37,318.62,490.9,318.19z"/>
			<path class="st0" d="M526.61,313.43v4.66h-9.72v31.55h-4.86v-31.55h-9.47v-4.66H526.61z"/>
			<path class="st0" d="M539.23,313.43v36.21h-4.86v-36.21H539.23z"/>
			<path class="st0" d="M571.82,349.07c-1.79,0.65-3.73,0.98-5.83,0.98c-3.71,0-6.97-0.82-9.79-2.45c-2.82-1.64-4.99-3.84-6.51-6.61
				c-1.52-2.77-2.28-5.83-2.28-9.17c0-3.57,0.77-6.79,2.3-9.64c1.54-2.85,3.66-5.09,6.39-6.71c2.72-1.62,5.8-2.43,9.24-2.43
				c2.04,0,3.94,0.27,5.71,0.8c1.77,0.53,3.36,1.24,4.76,2.1l-1.95,4.56c-2.77-1.87-5.56-2.8-8.36-2.8c-2.34,0-4.5,0.62-6.49,1.85
				c-1.99,1.24-3.57,2.91-4.76,5.03c-1.19,2.12-1.78,4.45-1.78,6.99c0,2.6,0.54,4.96,1.63,7.06c1.09,2.1,2.64,3.75,4.66,4.93
				c2.02,1.19,4.35,1.78,6.99,1.78c3.24,0,6.06-0.92,8.46-2.76l2.05,4.36C575.08,347.71,573.6,348.42,571.82,349.07z"/>
			<path class="st0" d="M622.4,349.07c-1.79,0.65-3.73,0.98-5.83,0.98c-3.71,0-6.97-0.82-9.79-2.45c-2.82-1.64-4.99-3.84-6.51-6.61
				c-1.52-2.77-2.28-5.83-2.28-9.17c0-3.57,0.77-6.79,2.3-9.64c1.54-2.85,3.66-5.09,6.39-6.71c2.72-1.62,5.8-2.43,9.24-2.43
				c2.04,0,3.94,0.27,5.71,0.8c1.77,0.53,3.36,1.24,4.76,2.1l-1.95,4.56c-2.77-1.87-5.56-2.8-8.36-2.8c-2.34,0-4.5,0.62-6.49,1.85
				c-1.99,1.24-3.57,2.91-4.76,5.03c-1.19,2.12-1.78,4.45-1.78,6.99c0,2.6,0.54,4.96,1.63,7.06c1.09,2.1,2.64,3.75,4.66,4.93
				c2.02,1.19,4.35,1.78,6.99,1.78c3.24,0,6.06-0.92,8.46-2.76l2.05,4.36C625.67,347.71,624.19,348.42,622.4,349.07z"/>
			<path class="st0" d="M658.54,313.43v4.66h-18.68v11.02h16.68v4.66h-16.68v11.17h19.38v4.71H635v-36.21H658.54z"/>
			<path class="st0" d="M699.26,313.43v37.42h-0.15l-26.6-27l0.1,25.79h-4.91v-37.32h0.25l26.55,27.3l-0.1-26.2H699.26z"/>
			<path class="st0" d="M731.07,313.43v4.66h-9.72v31.55h-4.86v-31.55h-9.47v-4.66H731.07z"/>
			<path class="st0" d="M758.76,349.64l-8.52-13.37c-0.27,0.03-0.67,0.05-1.2,0.05h-5.36v13.32h-4.86v-36.21h9.67
				c2.47,0,4.67,0.43,6.61,1.3c1.94,0.87,3.46,2.15,4.56,3.83c1.1,1.69,1.65,3.72,1.65,6.09c0,2.24-0.49,4.29-1.48,6.16
				c-0.98,1.87-2.5,3.29-4.53,4.26l9.12,14.58H758.76z M754.58,329.56c1.15-1.37,1.73-2.94,1.73-4.71c0-1.07-0.24-2.12-0.73-3.16
				s-1.25-1.9-2.3-2.58c-1.05-0.68-2.38-1.03-3.98-1.03h-5.61v13.52h5.26C751.55,331.61,753.43,330.93,754.58,329.56z"/>
			<path class="st0" d="M795.43,313.43v4.66h-18.68v11.02h16.68v4.66h-16.68v11.17h19.38v4.71h-24.24v-36.21H795.43z"/>
		</g>
	</g>
	<g>
		<g>
			<path class="st0" d="M285.25,175.65c0.73,0,1.29,0,1.85,0c10.28,0,20.57-0.02,30.85,0c2.67,0.01,5.38-0.1,8.01,0.24
				c9.23,1.22,16.98,5.36,23.04,12.43c5.66,6.6,9.91,14.16,14.3,21.62c3.61,6.12,7.21,12.25,10.79,18.39
				c0.21,0.36,0.31,0.83,0.31,1.25c0.1,10.1,0.22,20.21,0.22,30.31c0,1.72,0.57,2.07,2.16,2.07c14.74-0.05,29.48,0.08,44.22-0.09
				c4.59-0.05,9.28-0.36,13.72-1.41c14.34-3.41,25.33-11.54,32.53-24.52c0.37-0.66,0.39-1.81,0.07-2.5
				c-1.34-2.88-2.8-5.72-4.37-8.48c-0.97-1.71-2.22-3.26-3.43-5c-0.23,0.61-0.4,0.97-0.5,1.35c-1.59,6.55-5.01,12.08-9.74,16.76
				c-6.78,6.72-14.96,10.59-24.57,10.77c-10.8,0.2-21.6,0.08-32.4,0.09c-1.18,0-2.36,0-3.55,0c0-6.77,0.02-13.27-0.02-19.77
				c0-0.76-0.13-1.63-0.52-2.25c-3.54-5.63-7.26-11.15-10.71-16.83c-4.38-7.24-8.42-14.69-12.85-21.9
				c-3.32-5.41-7.31-10.35-12.3-14.36c-10.2-8.21-22-11.52-34.96-11.43c-14.51,0.1-29.03,0.02-43.54,0.02
				c-2.55,0-2.76,0.21-2.76,2.72c0,30.85,0,61.71,0.01,92.56c0,1.35,0.17,2.7,0.27,4.24c0.83,0,1.51,0,2.18,0
				c15.03,0,30.05,0.07,45.08-0.04c3.8-0.03,7.67-0.28,11.38-1.02c15.4-3.08,27.02-11.5,34.74-25.23c0.56-1,0.6-1.89,0.03-2.87
				c-2.48-4.28-4.94-8.57-7.42-12.85c-0.12-0.2-0.36-0.33-0.6-0.54c-0.16,0.28-0.28,0.41-0.31,0.56
				c-1.56,8.39-6.01,15.07-12.43,20.45c-6.24,5.22-13.5,8.34-21.7,8.46c-11.94,0.18-23.88,0.03-35.82,0.01
				c-0.43,0-0.86-0.08-1.3-0.13C285.25,224.37,285.25,200.15,285.25,175.65z M388.1,209.94c0.21-0.08,0.41-0.17,0.62-0.25
				c0-0.55,0-1.09,0-1.64c-0.03-10.22-0.04-20.44-0.13-30.66c-0.01-1.43,0.4-1.82,1.82-1.81c10.34,0.06,20.68,0.02,31.02,0.04
				c2.5,0.01,5.03-0.06,7.49,0.27c9.06,1.23,16.56,5.54,22.54,12.35c2.96,3.37,5.67,7.01,8.08,10.8
				c4.75,7.47,9.13,15.17,13.83,22.67c3.38,5.4,6.92,10.71,10.6,15.9c4.46,6.29,9.42,12.1,16.13,16.24
				c10.85,6.69,22.53,9.47,35.1,7.28c15.13-2.63,26.72-10.72,34.71-23.87c0.42-0.7,0.74-1.45,1.22-2.39c-4.41,0-8.52,0.1-12.62-0.04
				c-1.77-0.06-2.95,0.48-4.1,1.81c-10.34,11.93-27.69,15.78-42.66,9c-8.16-3.7-13.6-10.24-18.7-17.12
				c-6.85-9.25-12.71-19.14-18.16-29.28c-4.11-7.64-8.66-15.05-14.73-21.27c-9.83-10.07-22.14-15.06-36.1-15.37
				c-15.7-0.35-31.42-0.14-47.13-0.16c-2.07,0-2.26,0.2-2.27,2.26c-0.01,6.74-0.02,13.48,0,20.22c0,0.61,0.06,1.28,0.32,1.81
				c2.14,4.32,4.2,8.69,6.56,12.89C383.53,203.17,385.9,206.51,388.1,209.94z M491.07,204.58c0.29-1.05,0.46-1.65,0.63-2.25
				c1.54-5.52,4.13-10.55,7.98-14.73c8.75-9.49,19.68-13.42,32.51-11.73c9.65,1.27,17.41,5.96,23.61,13.4
				c0.43,0.51,1.28,0.94,1.94,0.95c3.82,0.09,7.65,0.05,11.48,0.04c0.41,0,0.83-0.09,1.88-0.21c-2.81-4.14-4.92-8.36-8.02-11.65
				c-13.14-13.93-29.35-18.6-47.89-14.26c-14.16,3.32-24.59,11.9-31.78,24.51c-0.67,1.17-0.61,2,0.01,3.06
				c1.99,3.38,3.92,6.8,5.89,10.19C489.77,202.71,490.33,203.47,491.07,204.58z"/>
			<path class="st0" d="M285.25,175.65c0,24.5,0,48.72,0,73.08c0.43,0.05,0.87,0.13,1.3,0.13c11.94,0.02,23.88,0.17,35.82-0.01
				c8.2-0.12,15.45-3.24,21.7-8.46c6.42-5.37,10.88-12.06,12.43-20.45c0.03-0.15,0.15-0.28,0.31-0.56c0.24,0.21,0.49,0.33,0.6,0.54
				c2.48,4.28,4.93,8.57,7.42,12.85c0.57,0.99,0.53,1.87-0.03,2.87c-7.73,13.73-19.34,22.15-34.74,25.23
				c-3.72,0.74-7.58,0.99-11.38,1.02c-15.03,0.11-30.05,0.04-45.08,0.04c-0.67,0-1.34,0-2.18,0c-0.1-1.54-0.27-2.89-0.27-4.24
				c-0.01-30.85-0.01-61.71-0.01-92.56c0-2.52,0.21-2.72,2.76-2.72c14.51,0,29.03,0.07,43.54-0.02
				c12.96-0.09,24.76,3.22,34.96,11.43c4.98,4.01,8.97,8.96,12.3,14.36c4.43,7.21,8.47,14.66,12.85,21.9
				c3.44,5.69,7.17,11.2,10.71,16.83c0.39,0.62,0.52,1.49,0.52,2.25c0.04,6.5,0.02,12.99,0.02,19.77c1.19,0,2.37,0,3.55,0
				c10.8-0.02,21.6,0.11,32.4-0.09c9.61-0.18,17.79-4.04,24.57-10.77c4.72-4.69,8.15-10.21,9.74-16.76c0.09-0.38,0.27-0.75,0.5-1.35
				c1.21,1.74,2.46,3.29,3.43,5c1.57,2.76,3.03,5.6,4.37,8.48c0.32,0.69,0.29,1.84-0.07,2.5c-7.2,12.98-18.19,21.11-32.53,24.52
				c-4.44,1.06-9.13,1.36-13.72,1.41c-14.74,0.17-29.48,0.04-44.22,0.09c-1.59,0.01-2.16-0.35-2.16-2.07
				c0-10.1-0.12-20.21-0.22-30.31c0-0.42-0.1-0.9-0.31-1.25c-3.58-6.14-7.18-12.27-10.79-18.39c-4.39-7.45-8.65-15.01-14.3-21.62
				c-6.06-7.08-13.81-11.22-23.04-12.43c-2.64-0.35-5.34-0.24-8.01-0.24c-10.28-0.02-20.57-0.01-30.85,0
				C286.54,175.65,285.98,175.65,285.25,175.65z"/>
			<path class="st0" d="M388.1,209.94c-2.2-3.43-4.56-6.77-6.56-10.31c-2.36-4.2-4.42-8.57-6.56-12.89
				c-0.26-0.53-0.32-1.2-0.32-1.81c-0.02-6.74-0.01-13.48,0-20.22c0-2.06,0.19-2.27,2.27-2.26c15.71,0.02,31.43-0.2,47.13,0.16
				c13.96,0.31,26.27,5.31,36.1,15.37c6.07,6.21,10.63,13.63,14.73,21.27c5.45,10.14,11.31,20.03,18.16,29.28
				c5.1,6.88,10.53,13.42,18.7,17.12c14.97,6.78,32.32,2.93,42.66-9c1.15-1.32,2.33-1.87,4.1-1.81c4.1,0.14,8.21,0.04,12.62,0.04
				c-0.47,0.94-0.79,1.7-1.22,2.39c-7.99,13.16-19.58,21.24-34.71,23.87c-12.57,2.19-24.24-0.59-35.1-7.28
				c-6.72-4.14-11.67-9.95-16.13-16.24c-3.68-5.19-7.22-10.5-10.6-15.9c-4.7-7.5-9.08-15.21-13.83-22.67
				c-2.41-3.78-5.12-7.43-8.08-10.8c-5.97-6.81-13.47-11.12-22.54-12.35c-2.47-0.34-4.99-0.27-7.49-0.27
				c-10.34-0.03-20.68,0.02-31.02-0.04c-1.42-0.01-1.83,0.38-1.82,1.81c0.09,10.22,0.1,20.44,0.13,30.66c0,0.55,0,1.09,0,1.64
				C388.51,209.77,388.3,209.85,388.1,209.94z"/>
			<path class="st0" d="M491.07,204.58c-0.74-1.11-1.3-1.88-1.77-2.69c-1.97-3.39-3.9-6.81-5.89-10.19
				c-0.63-1.06-0.68-1.89-0.01-3.06c7.19-12.61,17.61-21.19,31.78-24.51c18.54-4.35,34.76,0.33,47.89,14.26
				c3.1,3.29,5.22,7.5,8.02,11.65c-1.05,0.12-1.46,0.21-1.88,0.21c-3.83,0.01-7.65,0.05-11.48-0.04c-0.66-0.02-1.51-0.44-1.94-0.95
				c-6.2-7.43-13.96-12.13-23.61-13.4c-12.83-1.69-23.76,2.24-32.51,11.73c-3.85,4.18-6.44,9.21-7.98,14.73
				C491.53,202.94,491.36,203.54,491.07,204.58z"/>
		</g>
	</g>
	<g>
		<path class="st1" d="M51.68,432.9c-0.94,0-1.77-0.09-2.51-0.26c-0.73-0.17-1.36-0.35-1.87-0.53c-0.51-0.18-0.9-0.28-1.18-0.31
			l0.2-4.33h1.59l0.45,3.12c0.17,0.16,0.42,0.32,0.75,0.47c0.34,0.15,0.73,0.28,1.19,0.38c0.46,0.1,0.94,0.15,1.46,0.15
			c0.91,0,1.64-0.13,2.2-0.38s0.98-0.61,1.24-1.07c0.26-0.46,0.39-1.01,0.39-1.63c0-0.66-0.19-1.21-0.57-1.66
			c-0.38-0.45-0.9-0.85-1.56-1.2c-0.66-0.35-1.41-0.69-2.25-1.03c-0.51-0.22-1.04-0.47-1.61-0.76s-1.1-0.65-1.61-1.07
			c-0.5-0.42-0.91-0.92-1.23-1.5c-0.32-0.58-0.47-1.27-0.47-2.06c0-0.89,0.25-1.68,0.73-2.38c0.49-0.7,1.19-1.25,2.11-1.65
			s2.01-0.61,3.3-0.61c0.61,0,1.16,0.04,1.67,0.11s0.96,0.17,1.37,0.28c0.41,0.11,0.76,0.21,1.06,0.29c0.3,0.09,0.54,0.15,0.72,0.18
			l-0.15,4.03h-1.53l-0.49-2.96c-0.1-0.1-0.28-0.19-0.55-0.29c-0.27-0.1-0.59-0.19-0.96-0.26c-0.38-0.07-0.79-0.11-1.24-0.11
			c-0.79,0-1.44,0.1-1.96,0.31c-0.51,0.21-0.9,0.51-1.15,0.91c-0.25,0.4-0.37,0.89-0.37,1.46c0,0.7,0.19,1.27,0.56,1.71
			c0.37,0.44,0.89,0.83,1.55,1.17c0.66,0.34,1.41,0.7,2.26,1.08c0.58,0.26,1.17,0.54,1.77,0.85c0.6,0.31,1.15,0.67,1.66,1.07
			c0.51,0.4,0.92,0.88,1.23,1.42c0.31,0.54,0.47,1.17,0.47,1.89c0,0.62-0.13,1.23-0.39,1.84c-0.26,0.61-0.66,1.17-1.2,1.66
			c-0.54,0.5-1.23,0.89-2.08,1.19C53.86,432.75,52.85,432.9,51.68,432.9z"/>
		<path class="st1" d="M61.21,432.64v-1.19l1.51-0.2v-10.08l-1.78-0.42v-1.31l3.55-0.42l0.44,0.28l0.16,0.97l-0.03,0.77
			c0.37-0.32,0.85-0.64,1.44-0.95c0.58-0.31,1.2-0.57,1.86-0.77c0.65-0.2,1.25-0.31,1.8-0.31c0.89,0,1.6,0.14,2.14,0.43
			c0.54,0.29,0.95,0.74,1.23,1.36c0.32-0.27,0.76-0.54,1.3-0.82c0.54-0.27,1.14-0.5,1.77-0.69c0.64-0.19,1.26-0.28,1.86-0.28
			c0.78,0,1.43,0.11,1.95,0.32s0.93,0.55,1.23,0.99c0.3,0.44,0.52,1.01,0.65,1.7c0.13,0.69,0.2,1.52,0.2,2.48v6.74l1.77,0.2v1.19
			h-5.92v-1.19l1.52-0.2v-6.66c0-0.87-0.07-1.6-0.2-2.17c-0.13-0.58-0.39-1-0.78-1.28c-0.39-0.28-0.95-0.42-1.7-0.42
			c-0.4,0-0.8,0.06-1.21,0.18c-0.41,0.12-0.8,0.27-1.16,0.46c-0.37,0.18-0.68,0.37-0.93,0.55c0.05,0.24,0.09,0.5,0.12,0.77
			s0.06,0.57,0.08,0.88c0.02,0.31,0.02,0.64,0.02,0.98v6.71l1.76,0.2v1.19h-6.03v-1.19l1.63-0.2v-6.72c0-0.87-0.06-1.59-0.17-2.15
			c-0.12-0.56-0.35-0.98-0.7-1.25c-0.35-0.27-0.88-0.4-1.59-0.4c-0.64,0-1.29,0.15-1.96,0.46c-0.67,0.3-1.23,0.62-1.68,0.96v9.11
			l1.64,0.2v1.19H61.21z"/>
		<path class="st1" d="M86.93,432.64v-1.19l2.02-0.2v-10.08l-1.87-0.42v-1.3l3.86-0.43h0.05l0.57,0.42v11.83l1.98,0.18v1.19H86.93z
			 M90.06,416.93c-0.53,0-0.93-0.16-1.2-0.47c-0.27-0.31-0.41-0.68-0.41-1.09c0-0.46,0.15-0.88,0.44-1.24
			c0.29-0.36,0.74-0.55,1.35-0.55h0.02c0.52,0,0.92,0.15,1.19,0.46c0.27,0.3,0.4,0.67,0.4,1.09c0,0.46-0.15,0.88-0.44,1.25
			s-0.74,0.55-1.34,0.55H90.06z"/>
		<path class="st1" d="M97.94,431.25v-16.51l-2.02-0.25v-1.06l4.01-0.44h0.04l0.55,0.36v17.93l2.15,0.18v1.19h-6.75v-1.19
			L97.94,431.25z"/>
		<path class="st1" d="M111.3,432.9c-1.39,0-2.55-0.29-3.47-0.89c-0.92-0.59-1.6-1.41-2.05-2.46c-0.45-1.05-0.68-2.26-0.68-3.62
			c0-1.06,0.16-2.01,0.48-2.87c0.32-0.86,0.77-1.59,1.35-2.2c0.58-0.61,1.27-1.08,2.06-1.41s1.66-0.49,2.61-0.49
			c1.55,0,2.76,0.41,3.61,1.24c0.85,0.82,1.31,2.01,1.36,3.55c0,0.48-0.01,0.9-0.03,1.26c-0.02,0.36-0.06,0.68-0.13,0.96h-8.57
			c0.02,0.77,0.12,1.47,0.3,2.12s0.45,1.2,0.81,1.67c0.36,0.47,0.8,0.84,1.32,1.09c0.52,0.26,1.13,0.38,1.82,0.38
			c0.7,0,1.4-0.12,2.12-0.36c0.71-0.24,1.26-0.51,1.63-0.8l0.49,1.06c-0.29,0.3-0.7,0.58-1.23,0.85c-0.53,0.27-1.12,0.49-1.78,0.67
			S111.99,432.9,111.3,432.9z M107.85,424.7h5.98c0.02-0.14,0.03-0.3,0.04-0.5c0.01-0.2,0.02-0.38,0.02-0.53
			c0-0.98-0.21-1.78-0.63-2.41c-0.42-0.63-1.13-0.94-2.12-0.94c-0.44,0-0.85,0.07-1.23,0.22c-0.38,0.14-0.72,0.38-1.01,0.72
			c-0.29,0.34-0.53,0.79-0.7,1.35C108.02,423.16,107.9,423.86,107.85,424.7z"/>
		<path class="st1" d="M124.72,432.9c-0.62,0-1.24-0.06-1.87-0.17c-0.62-0.12-1.19-0.25-1.7-0.41c-0.51-0.16-0.9-0.29-1.18-0.41
			v-3.07h1.63l0.45,1.87c0.11,0.15,0.3,0.3,0.58,0.45c0.28,0.15,0.61,0.27,0.98,0.35c0.38,0.09,0.77,0.13,1.19,0.13
			c0.66,0,1.19-0.08,1.59-0.25c0.41-0.16,0.7-0.39,0.88-0.69c0.18-0.3,0.27-0.64,0.27-1.03c0-0.46-0.15-0.84-0.45-1.16
			c-0.3-0.32-0.73-0.61-1.29-0.87c-0.56-0.26-1.24-0.54-2.05-0.84c-0.81-0.3-1.49-0.65-2.04-1.03c-0.54-0.38-0.95-0.84-1.23-1.36
			c-0.28-0.52-0.42-1.14-0.42-1.86c0-0.71,0.22-1.33,0.67-1.86c0.44-0.53,1.05-0.94,1.81-1.24c0.76-0.3,1.62-0.44,2.58-0.44
			c0.71,0,1.34,0.05,1.88,0.15c0.54,0.1,0.99,0.21,1.36,0.32c0.37,0.12,0.65,0.2,0.85,0.26v2.98h-1.51l-0.5-1.78
			c-0.08-0.13-0.22-0.24-0.44-0.35c-0.22-0.1-0.48-0.19-0.78-0.25c-0.3-0.06-0.62-0.1-0.94-0.1c-0.51-0.01-0.96,0.06-1.35,0.21
			c-0.39,0.15-0.68,0.35-0.89,0.62c-0.21,0.26-0.31,0.58-0.31,0.94c0,0.56,0.16,1.01,0.47,1.34c0.31,0.33,0.71,0.61,1.21,0.82
			c0.49,0.22,1.02,0.44,1.56,0.66c0.54,0.22,1.07,0.44,1.58,0.68c0.51,0.24,0.98,0.51,1.38,0.82c0.41,0.31,0.73,0.69,0.98,1.12
			c0.25,0.44,0.37,0.96,0.37,1.57c0,0.78-0.21,1.45-0.64,2.03c-0.42,0.58-1.04,1.03-1.84,1.36
			C126.79,432.74,125.83,432.9,124.72,432.9z"/>
		<path class="st1" d="M140.86,431.22l6.18-16.56h2.83l5.79,16.56l1.56,0.23v1.19h-6.59v-1.19l2.02-0.23l-1.16-3.54h-7.22
			l-1.18,3.53l2.14,0.24v1.19h-5.9l-0.01-1.19L140.86,431.22z M151.02,426.27l-2.45-7.76l-0.55-1.98l-0.62,2.04l-2.69,7.7H151.02z"
			/>
		<path class="st1" d="M165.08,432.9c-1.39,0-2.56-0.3-3.49-0.89c-0.93-0.6-1.63-1.41-2.09-2.44c-0.46-1.03-0.7-2.18-0.7-3.46
			c-0.01-0.98,0.14-1.91,0.44-2.77c0.3-0.86,0.74-1.62,1.33-2.28c0.59-0.66,1.32-1.17,2.19-1.54c0.87-0.37,1.88-0.56,3.03-0.56
			c0.56,0,1.09,0.04,1.56,0.13c0.48,0.09,0.9,0.19,1.26,0.31c0.36,0.12,0.66,0.21,0.89,0.28l-0.12,3.7h-1.61l-0.56-2.44
			c-0.02-0.14-0.14-0.25-0.34-0.35c-0.2-0.1-0.44-0.18-0.71-0.24c-0.27-0.06-0.55-0.09-0.83-0.09c-0.75,0-1.4,0.19-1.96,0.58
			c-0.56,0.39-0.99,0.96-1.31,1.72c-0.32,0.76-0.48,1.7-0.49,2.82c-0.01,0.99,0.09,1.86,0.29,2.59c0.2,0.74,0.49,1.34,0.86,1.82
			c0.37,0.48,0.8,0.84,1.3,1.08c0.5,0.24,1.04,0.36,1.63,0.36c0.51,0,0.98-0.05,1.43-0.16c0.45-0.11,0.85-0.24,1.22-0.4
			c0.36-0.16,0.68-0.32,0.93-0.49l0.47,0.97c-0.28,0.27-0.66,0.54-1.15,0.82c-0.48,0.27-1.02,0.5-1.62,0.67
			C166.36,432.81,165.73,432.9,165.08,432.9z"/>
		<path class="st1" d="M172.74,432.64v-1.18l1.86-0.16v-10.14l-1.79-0.42v-1.31l3.44-0.42h0.06l0.54,0.42v0.43l-0.06,2.12h0.06
			c0.08-0.13,0.23-0.35,0.46-0.65c0.23-0.31,0.55-0.63,0.94-0.98c0.39-0.34,0.87-0.64,1.41-0.88c0.55-0.24,1.17-0.37,1.87-0.37
			c0.24,0,0.43,0.01,0.57,0.04c0.14,0.03,0.26,0.05,0.35,0.08v2.58c-0.1-0.06-0.28-0.13-0.53-0.19c-0.25-0.06-0.58-0.09-0.98-0.09
			c-0.67,0-1.25,0.08-1.72,0.25c-0.47,0.16-0.87,0.35-1.19,0.56c-0.32,0.21-0.6,0.4-0.83,0.57v8.36l3.15,0.2v1.15H172.74z"/>
		<path class="st1" d="M184.24,425.93c0-1.12,0.18-2.11,0.55-2.98c0.36-0.87,0.86-1.6,1.49-2.19c0.63-0.59,1.33-1.04,2.12-1.34
			c0.78-0.3,1.6-0.46,2.43-0.46c1.45,0,2.64,0.31,3.57,0.92c0.93,0.62,1.62,1.45,2.06,2.5c0.44,1.05,0.67,2.23,0.67,3.55
			c0,1.13-0.18,2.13-0.55,2.99c-0.36,0.87-0.86,1.6-1.49,2.19c-0.63,0.59-1.33,1.04-2.12,1.34c-0.78,0.3-1.6,0.45-2.43,0.45
			c-1.09,0-2.03-0.18-2.83-0.53c-0.8-0.35-1.45-0.84-1.96-1.48c-0.51-0.63-0.89-1.37-1.14-2.21
			C184.36,427.84,184.24,426.92,184.24,425.93z M190.7,431.53c0.75,0,1.38-0.2,1.91-0.6c0.53-0.4,0.93-1,1.21-1.81
			c0.28-0.8,0.42-1.81,0.42-3.02c0-0.82-0.06-1.59-0.19-2.29s-0.33-1.32-0.6-1.84c-0.27-0.52-0.64-0.93-1.09-1.22
			c-0.45-0.29-1-0.43-1.65-0.43c-0.76,0-1.4,0.2-1.93,0.6c-0.53,0.4-0.94,1-1.22,1.8c-0.28,0.8-0.42,1.81-0.42,3.02
			c0,0.83,0.07,1.6,0.2,2.3c0.13,0.7,0.34,1.32,0.62,1.84c0.28,0.52,0.65,0.92,1.11,1.21C189.52,431.39,190.06,431.53,190.7,431.53z
			"/>
		<path class="st1" d="M205.08,432.9c-0.62,0-1.24-0.06-1.87-0.17c-0.62-0.12-1.19-0.25-1.7-0.41c-0.51-0.16-0.9-0.29-1.18-0.41
			v-3.07h1.63l0.45,1.87c0.11,0.15,0.3,0.3,0.58,0.45c0.28,0.15,0.61,0.27,0.98,0.35c0.38,0.09,0.77,0.13,1.19,0.13
			c0.66,0,1.19-0.08,1.59-0.25c0.41-0.16,0.7-0.39,0.88-0.69c0.18-0.3,0.27-0.64,0.27-1.03c0-0.46-0.15-0.84-0.45-1.16
			c-0.3-0.32-0.73-0.61-1.29-0.87c-0.56-0.26-1.24-0.54-2.05-0.84c-0.81-0.3-1.49-0.65-2.04-1.03c-0.54-0.38-0.95-0.84-1.23-1.36
			c-0.28-0.52-0.42-1.14-0.42-1.86c0-0.71,0.22-1.33,0.67-1.86c0.44-0.53,1.05-0.94,1.81-1.24c0.76-0.3,1.62-0.44,2.58-0.44
			c0.71,0,1.34,0.05,1.88,0.15c0.54,0.1,0.99,0.21,1.36,0.32c0.37,0.12,0.65,0.2,0.85,0.26v2.98h-1.51l-0.5-1.78
			c-0.08-0.13-0.22-0.24-0.44-0.35c-0.22-0.1-0.48-0.19-0.78-0.25c-0.3-0.06-0.62-0.1-0.94-0.1c-0.51-0.01-0.96,0.06-1.35,0.21
			c-0.39,0.15-0.68,0.35-0.89,0.62c-0.21,0.26-0.31,0.58-0.31,0.94c0,0.56,0.16,1.01,0.47,1.34c0.31,0.33,0.71,0.61,1.21,0.82
			s1.02,0.44,1.56,0.66c0.54,0.22,1.07,0.44,1.58,0.68c0.51,0.24,0.98,0.51,1.38,0.82c0.41,0.31,0.73,0.69,0.98,1.12
			c0.25,0.44,0.37,0.96,0.37,1.57c0,0.78-0.21,1.45-0.64,2.03c-0.42,0.58-1.04,1.03-1.84,1.36
			C207.15,432.74,206.19,432.9,205.08,432.9z"/>
		<path class="st1" d="M218.58,432.9c-0.62,0-1.24-0.06-1.87-0.17c-0.62-0.12-1.19-0.25-1.7-0.41c-0.51-0.16-0.9-0.29-1.18-0.41
			v-3.07h1.63l0.45,1.87c0.11,0.15,0.3,0.3,0.58,0.45c0.28,0.15,0.61,0.27,0.98,0.35s0.77,0.13,1.19,0.13
			c0.66,0,1.19-0.08,1.59-0.25c0.41-0.16,0.7-0.39,0.88-0.69c0.18-0.3,0.27-0.64,0.27-1.03c0-0.46-0.15-0.84-0.45-1.16
			c-0.3-0.32-0.73-0.61-1.29-0.87c-0.56-0.26-1.24-0.54-2.05-0.84c-0.81-0.3-1.49-0.65-2.04-1.03c-0.54-0.38-0.95-0.84-1.23-1.36
			c-0.28-0.52-0.42-1.14-0.42-1.86c0-0.71,0.22-1.33,0.67-1.86c0.44-0.53,1.05-0.94,1.81-1.24c0.76-0.3,1.62-0.44,2.58-0.44
			c0.71,0,1.34,0.05,1.88,0.15c0.54,0.1,0.99,0.21,1.36,0.32c0.37,0.12,0.65,0.2,0.85,0.26v2.98h-1.51l-0.5-1.78
			c-0.08-0.13-0.22-0.24-0.44-0.35c-0.22-0.1-0.48-0.19-0.78-0.25c-0.3-0.06-0.62-0.1-0.94-0.1c-0.51-0.01-0.96,0.06-1.35,0.21
			c-0.39,0.15-0.68,0.35-0.89,0.62c-0.21,0.26-0.31,0.58-0.31,0.94c0,0.56,0.16,1.01,0.47,1.34c0.31,0.33,0.71,0.61,1.21,0.82
			c0.49,0.22,1.02,0.44,1.56,0.66c0.54,0.22,1.07,0.44,1.58,0.68c0.51,0.24,0.98,0.51,1.38,0.82c0.41,0.31,0.73,0.69,0.98,1.12
			c0.25,0.44,0.37,0.96,0.37,1.57c0,0.78-0.21,1.45-0.64,2.03c-0.42,0.58-1.04,1.03-1.84,1.36
			C220.65,432.74,219.69,432.9,218.58,432.9z"/>
		<path class="st1" d="M242.79,432.9c-1.4,0-2.64-0.23-3.73-0.68c-1.09-0.46-2.01-1.09-2.77-1.91c-0.75-0.82-1.32-1.76-1.72-2.84
			c-0.4-1.08-0.59-2.24-0.59-3.48c0-1.5,0.22-2.84,0.66-4.01c0.44-1.17,1.07-2.15,1.88-2.95c0.81-0.8,1.8-1.4,2.95-1.81
			c1.15-0.41,2.44-0.62,3.86-0.62c0.65,0,1.29,0.03,1.92,0.1c0.63,0.07,1.22,0.15,1.77,0.25c0.55,0.1,1.03,0.18,1.45,0.26
			c0.42,0.08,0.73,0.12,0.95,0.14l-0.22,4.18h-1.79l-0.58-2.88c-0.12-0.09-0.33-0.19-0.64-0.31s-0.72-0.22-1.23-0.31
			c-0.51-0.09-1.11-0.13-1.81-0.13c-1.29,0-2.38,0.28-3.29,0.85c-0.91,0.56-1.59,1.41-2.07,2.53c-0.47,1.12-0.71,2.51-0.71,4.18
			c0,1.08,0.11,2.11,0.33,3.09c0.22,0.98,0.57,1.85,1.04,2.62c0.47,0.76,1.09,1.37,1.84,1.82c0.75,0.45,1.66,0.67,2.72,0.67
			c0.53,0,1.03-0.04,1.49-0.13c0.46-0.09,0.89-0.21,1.29-0.37c0.4-0.16,0.77-0.34,1.12-0.54v-5.34l-3.13-0.25v-1.39h7.27v1.39
			l-1.45,0.24v6.44c-0.32,0.01-0.66,0.06-1.01,0.14c-0.35,0.09-0.72,0.19-1.12,0.31c-0.4,0.12-0.83,0.24-1.3,0.35
			c-0.47,0.12-0.99,0.21-1.55,0.29S243.45,432.9,242.79,432.9z"/>
		<path class="st1" d="M260.34,432.9c-1.39,0-2.55-0.29-3.47-0.89c-0.92-0.59-1.6-1.41-2.05-2.46c-0.45-1.05-0.68-2.26-0.68-3.62
			c0-1.06,0.16-2.01,0.48-2.87c0.32-0.86,0.77-1.59,1.35-2.2c0.58-0.61,1.27-1.08,2.06-1.41c0.79-0.33,1.66-0.49,2.61-0.49
			c1.55,0,2.76,0.41,3.61,1.24c0.85,0.82,1.31,2.01,1.36,3.55c0,0.48-0.01,0.9-0.03,1.26c-0.02,0.36-0.06,0.68-0.13,0.96h-8.57
			c0.02,0.77,0.12,1.47,0.3,2.12c0.18,0.64,0.45,1.2,0.81,1.67c0.36,0.47,0.8,0.84,1.32,1.09c0.52,0.26,1.13,0.38,1.82,0.38
			c0.7,0,1.4-0.12,2.12-0.36c0.71-0.24,1.26-0.51,1.63-0.8l0.49,1.06c-0.29,0.3-0.7,0.58-1.23,0.85c-0.53,0.27-1.12,0.49-1.78,0.67
			C261.69,432.82,261.02,432.9,260.34,432.9z M256.89,424.7h5.98c0.02-0.14,0.03-0.3,0.04-0.5c0.01-0.2,0.02-0.38,0.02-0.53
			c0-0.98-0.21-1.78-0.63-2.41c-0.42-0.63-1.13-0.94-2.12-0.94c-0.44,0-0.85,0.07-1.23,0.22c-0.38,0.14-0.72,0.38-1.01,0.72
			c-0.29,0.34-0.53,0.79-0.7,1.35C257.05,423.16,256.94,423.86,256.89,424.7z"/>
		<path class="st1" d="M270.24,431.25v-10.08l-1.78-0.42v-1.31l3.55-0.42h0.08l0.52,0.42v1l-0.03,0.6c0.37-0.31,0.83-0.62,1.4-0.94
			c0.56-0.31,1.18-0.57,1.84-0.78c0.66-0.21,1.31-0.31,1.96-0.31c1.06,0,1.88,0.19,2.46,0.58c0.59,0.38,1,0.98,1.24,1.79
			c0.24,0.81,0.36,1.86,0.36,3.14v6.76l1.73,0.17v1.2h-5.9v-1.19l1.53-0.18v-6.74c0-0.87-0.07-1.59-0.2-2.15
			c-0.14-0.56-0.39-0.98-0.77-1.25c-0.37-0.27-0.92-0.4-1.63-0.4c-0.44,0-0.89,0.07-1.35,0.22c-0.46,0.15-0.89,0.33-1.3,0.55
			c-0.41,0.22-0.77,0.44-1.07,0.67v9.08l1.69,0.2v1.19h-5.92v-1.19L270.24,431.25z"/>
		<path class="st1" d="M292.33,432.9c-1.39,0-2.55-0.29-3.47-0.89c-0.92-0.59-1.6-1.41-2.05-2.46c-0.45-1.05-0.68-2.26-0.68-3.62
			c0-1.06,0.16-2.01,0.48-2.87c0.32-0.86,0.77-1.59,1.35-2.2c0.58-0.61,1.27-1.08,2.06-1.41c0.79-0.33,1.66-0.49,2.61-0.49
			c1.55,0,2.76,0.41,3.61,1.24c0.85,0.82,1.31,2.01,1.36,3.55c0,0.48-0.01,0.9-0.03,1.26c-0.02,0.36-0.06,0.68-0.13,0.96h-8.57
			c0.02,0.77,0.12,1.47,0.3,2.12s0.45,1.2,0.81,1.67c0.36,0.47,0.8,0.84,1.32,1.09c0.52,0.26,1.13,0.38,1.82,0.38
			c0.7,0,1.4-0.12,2.12-0.36c0.71-0.24,1.26-0.51,1.63-0.8l0.49,1.06c-0.29,0.3-0.7,0.58-1.23,0.85c-0.53,0.27-1.12,0.49-1.78,0.67
			C293.69,432.82,293.01,432.9,292.33,432.9z M288.88,424.7h5.98c0.02-0.14,0.03-0.3,0.04-0.5c0.01-0.2,0.02-0.38,0.02-0.53
			c0-0.98-0.21-1.78-0.63-2.41c-0.42-0.63-1.13-0.94-2.12-0.94c-0.44,0-0.85,0.07-1.23,0.22c-0.38,0.14-0.72,0.38-1.01,0.72
			c-0.29,0.34-0.53,0.79-0.7,1.35C289.05,423.16,288.93,423.86,288.88,424.7z"/>
		<path class="st1" d="M300.53,432.64v-1.18l1.86-0.16v-10.14l-1.79-0.42v-1.31l3.44-0.42h0.06l0.54,0.42v0.43l-0.06,2.12h0.06
			c0.07-0.13,0.23-0.35,0.46-0.65c0.23-0.31,0.55-0.63,0.94-0.98c0.39-0.34,0.87-0.64,1.41-0.88c0.55-0.24,1.17-0.37,1.87-0.37
			c0.24,0,0.43,0.01,0.57,0.04c0.14,0.03,0.26,0.05,0.35,0.08v2.58c-0.1-0.06-0.28-0.13-0.53-0.19s-0.58-0.09-0.98-0.09
			c-0.67,0-1.25,0.08-1.72,0.25c-0.47,0.16-0.87,0.35-1.19,0.56c-0.32,0.21-0.6,0.4-0.83,0.57v8.36l3.15,0.2v1.15H300.53z"/>
		<path class="st1" d="M316.53,432.9c-0.75,0-1.44-0.14-2.07-0.42c-0.63-0.28-1.14-0.71-1.53-1.28c-0.39-0.57-0.58-1.29-0.58-2.17
			c0-0.81,0.23-1.49,0.68-2.06c0.45-0.56,1.07-1.02,1.85-1.36s1.66-0.6,2.65-0.77c0.99-0.17,2.02-0.26,3.09-0.28v-0.85
			c0-0.72-0.08-1.29-0.24-1.7c-0.16-0.42-0.45-0.71-0.85-0.89c-0.41-0.18-0.99-0.26-1.74-0.26c-0.97,0-1.82,0.15-2.55,0.44
			c-0.73,0.3-1.29,0.55-1.69,0.76l-0.64-1.26c0.17-0.14,0.53-0.36,1.08-0.64s1.22-0.54,2-0.78c0.78-0.24,1.6-0.35,2.45-0.35
			c1.17,0,2.1,0.16,2.78,0.49c0.68,0.32,1.17,0.83,1.47,1.52c0.29,0.69,0.44,1.59,0.44,2.71v7.67h1.47v1.07
			c-0.18,0.04-0.43,0.09-0.73,0.14c-0.3,0.06-0.62,0.11-0.96,0.15s-0.65,0.07-0.93,0.07c-0.43,0-0.74-0.06-0.92-0.19
			c-0.18-0.13-0.27-0.43-0.27-0.9v-0.77c-0.21,0.2-0.51,0.45-0.92,0.76c-0.41,0.3-0.89,0.57-1.46,0.81
			C317.85,432.78,317.22,432.9,316.53,432.9z M317.62,431.26c0.44,0,0.94-0.13,1.51-0.38c0.57-0.25,1.07-0.56,1.5-0.92v-4.13
			c-1.25,0.01-2.27,0.14-3.08,0.4c-0.8,0.26-1.4,0.6-1.8,1.04c-0.39,0.44-0.59,0.93-0.59,1.48c0,0.6,0.11,1.08,0.32,1.45
			c0.22,0.37,0.51,0.64,0.88,0.8C316.73,431.17,317.15,431.26,317.62,431.26z"/>
		<path class="st1" d="M331.27,432.89c-0.91,0-1.6-0.2-2.09-0.61c-0.49-0.4-0.73-1.13-0.73-2.18v-9.19h-1.78v-1.12
			c0.17-0.04,0.35-0.09,0.55-0.14s0.39-0.1,0.56-0.16s0.3-0.11,0.39-0.16c0.1-0.07,0.18-0.15,0.25-0.23
			c0.07-0.08,0.13-0.17,0.19-0.28c0.06-0.1,0.12-0.23,0.17-0.38c0.08-0.2,0.17-0.47,0.27-0.82c0.1-0.34,0.19-0.68,0.29-1.02
			s0.16-0.59,0.21-0.77h1.48l0.04,3.46h4.15v1.61h-4.14v7.36c0,0.87,0.04,1.5,0.11,1.9c0.07,0.39,0.21,0.64,0.42,0.75
			c0.21,0.11,0.53,0.16,0.95,0.16c0.47,0,0.98-0.06,1.51-0.18c0.53-0.12,0.93-0.24,1.21-0.36l0.39,1.08
			c-0.26,0.19-0.62,0.39-1.09,0.58s-0.99,0.36-1.56,0.49C332.41,432.82,331.84,432.89,331.27,432.89z"/>
		<path class="st1" d="M338.32,432.64v-1.19l2.02-0.2v-10.08l-1.87-0.42v-1.3l3.86-0.43h0.05l0.57,0.42v11.83l1.98,0.18v1.19H338.32
			z M341.44,416.93c-0.53,0-0.93-0.16-1.2-0.47c-0.27-0.31-0.41-0.68-0.41-1.09c0-0.46,0.15-0.88,0.44-1.24
			c0.29-0.36,0.74-0.55,1.35-0.55h0.02c0.52,0,0.92,0.15,1.19,0.46c0.27,0.3,0.4,0.67,0.4,1.09c0,0.46-0.15,0.88-0.44,1.25
			s-0.74,0.55-1.34,0.55H341.44z"/>
		<path class="st1" d="M347.42,425.93c0-1.12,0.18-2.11,0.55-2.98c0.36-0.87,0.86-1.6,1.49-2.19c0.63-0.59,1.33-1.04,2.12-1.34
			s1.6-0.46,2.43-0.46c1.45,0,2.64,0.31,3.57,0.92c0.93,0.62,1.62,1.45,2.06,2.5c0.44,1.05,0.67,2.23,0.67,3.55
			c0,1.13-0.18,2.13-0.55,2.99c-0.36,0.87-0.86,1.6-1.49,2.19c-0.63,0.59-1.33,1.04-2.12,1.34c-0.78,0.3-1.6,0.45-2.43,0.45
			c-1.09,0-2.03-0.18-2.83-0.53c-0.8-0.35-1.45-0.84-1.96-1.48c-0.51-0.63-0.89-1.37-1.14-2.21
			C347.55,427.84,347.42,426.92,347.42,425.93z M353.88,431.53c0.75,0,1.38-0.2,1.91-0.6c0.53-0.4,0.93-1,1.21-1.81
			c0.28-0.8,0.42-1.81,0.42-3.02c0-0.82-0.06-1.59-0.19-2.29s-0.33-1.32-0.6-1.84c-0.27-0.52-0.64-0.93-1.09-1.22
			c-0.45-0.29-1-0.43-1.65-0.43c-0.76,0-1.4,0.2-1.93,0.6c-0.53,0.4-0.94,1-1.22,1.8c-0.28,0.8-0.42,1.81-0.42,3.02
			c0,0.83,0.07,1.6,0.2,2.3s0.34,1.32,0.62,1.84c0.28,0.52,0.65,0.92,1.11,1.21C352.7,431.39,353.25,431.53,353.88,431.53z"/>
		<path class="st1" d="M364.98,431.25v-10.08l-1.78-0.42v-1.31l3.55-0.42h0.07l0.52,0.42v1l-0.03,0.6c0.37-0.31,0.83-0.62,1.4-0.94
			c0.56-0.31,1.18-0.57,1.84-0.78c0.66-0.21,1.31-0.31,1.96-0.31c1.06,0,1.88,0.19,2.46,0.58c0.59,0.38,1,0.98,1.24,1.79
			c0.24,0.81,0.36,1.86,0.36,3.14v6.76l1.73,0.17v1.2h-5.9v-1.19l1.53-0.18v-6.74c0-0.87-0.07-1.59-0.2-2.15
			c-0.14-0.56-0.39-0.98-0.77-1.25c-0.37-0.27-0.92-0.4-1.63-0.4c-0.44,0-0.89,0.07-1.35,0.22c-0.46,0.15-0.89,0.33-1.3,0.55
			c-0.41,0.22-0.77,0.44-1.07,0.67v9.08l1.69,0.2v1.19h-5.92v-1.19L364.98,431.25z"/>
		<path class="st1" d="M385.99,432.9c-0.62,0-1.24-0.06-1.87-0.17c-0.62-0.12-1.19-0.25-1.7-0.41c-0.51-0.16-0.9-0.29-1.18-0.41
			v-3.07h1.63l0.45,1.87c0.11,0.15,0.3,0.3,0.58,0.45c0.28,0.15,0.61,0.27,0.98,0.35c0.38,0.09,0.77,0.13,1.19,0.13
			c0.66,0,1.19-0.08,1.59-0.25c0.41-0.16,0.7-0.39,0.88-0.69c0.18-0.3,0.27-0.64,0.27-1.03c0-0.46-0.15-0.84-0.45-1.16
			c-0.3-0.32-0.73-0.61-1.29-0.87c-0.56-0.26-1.24-0.54-2.05-0.84c-0.81-0.3-1.49-0.65-2.04-1.03c-0.54-0.38-0.95-0.84-1.23-1.36
			c-0.28-0.52-0.42-1.14-0.42-1.86c0-0.71,0.22-1.33,0.67-1.86c0.44-0.53,1.05-0.94,1.81-1.24c0.76-0.3,1.62-0.44,2.58-0.44
			c0.71,0,1.34,0.05,1.88,0.15c0.54,0.1,0.99,0.21,1.36,0.32c0.37,0.12,0.65,0.2,0.85,0.26v2.98h-1.51l-0.5-1.78
			c-0.07-0.13-0.22-0.24-0.44-0.35c-0.22-0.1-0.48-0.19-0.78-0.25c-0.3-0.06-0.62-0.1-0.94-0.1c-0.51-0.01-0.96,0.06-1.35,0.21
			c-0.39,0.15-0.68,0.35-0.89,0.62c-0.21,0.26-0.31,0.58-0.31,0.94c0,0.56,0.16,1.01,0.47,1.34c0.31,0.33,0.71,0.61,1.21,0.82
			s1.02,0.44,1.56,0.66c0.54,0.22,1.07,0.44,1.58,0.68c0.51,0.24,0.98,0.51,1.38,0.82c0.41,0.31,0.73,0.69,0.98,1.12
			c0.25,0.44,0.37,0.96,0.37,1.57c0,0.78-0.21,1.45-0.64,2.03c-0.42,0.58-1.04,1.03-1.84,1.36
			C388.06,432.74,387.11,432.9,385.99,432.9z"/>
		<path class="st1" d="M396.65,432.88c-0.42,0-0.79-0.14-1.1-0.42c-0.31-0.28-0.47-0.65-0.47-1.12c0-0.5,0.18-0.92,0.55-1.25
			c0.37-0.33,0.79-0.5,1.28-0.5c0.52,0,0.92,0.16,1.18,0.47c0.26,0.31,0.39,0.67,0.39,1.07c0,0.53-0.18,0.95-0.54,1.27
			C397.58,432.72,397.15,432.88,396.65,432.88z"/>
		<path class="st1" d="M410.32,431.56c0.24,0.02,0.49,0.04,0.75,0.05c0.26,0.01,0.5,0.02,0.73,0.02c1.22,0,2.33-0.23,3.31-0.68
			c0.99-0.46,1.77-1.06,2.35-1.81c0.58-0.75,0.87-1.58,0.87-2.5c0-0.8-0.14-1.46-0.42-1.97c-0.28-0.51-0.7-0.89-1.26-1.14
			s-1.25-0.37-2.08-0.37c-0.37,0-0.78,0.03-1.23,0.1c-0.45,0.07-0.89,0.16-1.31,0.28c-0.43,0.12-0.79,0.25-1.1,0.4l-0.76-0.47
			l1.23-8.66H419l0.25-0.46h1.56l-0.45,2.5h-7.05l-1.13,5.54c0.26-0.14,0.59-0.29,1.01-0.44c0.42-0.15,0.88-0.28,1.37-0.38
			c0.49-0.1,0.99-0.15,1.5-0.15c1.08,0,2,0.19,2.77,0.56c0.77,0.37,1.36,0.91,1.76,1.62c0.41,0.71,0.61,1.57,0.61,2.57
			c0,0.94-0.22,1.83-0.65,2.65c-0.43,0.82-1.05,1.54-1.86,2.17c-0.81,0.62-1.77,1.11-2.89,1.46c-1.12,0.35-2.37,0.53-3.75,0.53
			c-0.18,0-0.37,0-0.57-0.01c-0.2-0.01-0.39-0.02-0.59-0.05c-0.2-0.02-0.39-0.06-0.58-0.11V431.56z"/>
		<path class="st1" d="M431.47,432.87c-1.12,0-2.1-0.23-2.93-0.7c-0.83-0.47-1.52-1.12-2.05-1.96c-0.54-0.84-0.94-1.81-1.2-2.93
			s-0.39-2.33-0.39-3.64c0.01-1.92,0.32-3.55,0.94-4.9c0.62-1.35,1.45-2.38,2.51-3.08c1.05-0.71,2.24-1.06,3.55-1.06
			c1.15,0,2.13,0.22,2.95,0.65c0.82,0.44,1.49,1.06,2.01,1.86c0.52,0.8,0.91,1.76,1.16,2.86c0.25,1.1,0.38,2.32,0.37,3.66
			c-0.01,1.9-0.3,3.53-0.88,4.91c-0.58,1.38-1.39,2.45-2.43,3.2S432.84,432.87,431.47,432.87z M431.63,431.62
			c0.94,0,1.69-0.29,2.24-0.88s0.96-1.45,1.2-2.61c0.25-1.16,0.37-2.59,0.37-4.31c0-1.29-0.07-2.43-0.22-3.42
			c-0.15-0.99-0.37-1.83-0.66-2.51c-0.29-0.68-0.68-1.19-1.15-1.54c-0.47-0.35-1.05-0.52-1.72-0.52c-0.68,0-1.26,0.16-1.75,0.47
			c-0.49,0.31-0.88,0.78-1.2,1.42s-0.54,1.43-0.69,2.39c-0.14,0.96-0.22,2.09-0.22,3.4c0,1.22,0.07,2.32,0.22,3.31
			c0.14,0.99,0.37,1.85,0.68,2.57c0.31,0.72,0.7,1.27,1.18,1.66S430.97,431.62,431.63,431.62z"/>
		<path class="st1" d="M454.69,431.22v-5.53l-5.44-9.37l-1.49-0.3v-1.21h6.51v1.21l-1.97,0.29l3.39,6.42l0.82,1.82l0.87-1.82
			l3.42-6.42l-2.04-0.29v-1.21h5.68v1.21l-1.61,0.28l-5.36,9.37v5.53l2.79,0.25v1.19h-8.3v-1.19L454.69,431.22z"/>
		<path class="st1" d="M470.25,432.9c-1.39,0-2.55-0.29-3.47-0.89c-0.92-0.59-1.6-1.41-2.05-2.46c-0.45-1.05-0.68-2.26-0.68-3.62
			c0-1.06,0.16-2.01,0.48-2.87c0.32-0.86,0.77-1.59,1.35-2.2c0.58-0.61,1.27-1.08,2.06-1.41c0.79-0.33,1.66-0.49,2.61-0.49
			c1.55,0,2.76,0.41,3.61,1.24c0.85,0.82,1.31,2.01,1.36,3.55c0,0.48-0.01,0.9-0.03,1.26c-0.02,0.36-0.06,0.68-0.13,0.96h-8.57
			c0.02,0.77,0.12,1.47,0.3,2.12s0.45,1.2,0.81,1.67c0.36,0.47,0.8,0.84,1.32,1.09c0.52,0.26,1.13,0.38,1.82,0.38
			c0.7,0,1.4-0.12,2.12-0.36c0.71-0.24,1.26-0.51,1.63-0.8l0.49,1.06c-0.29,0.3-0.7,0.58-1.23,0.85c-0.53,0.27-1.12,0.49-1.78,0.67
			C471.6,432.82,470.93,432.9,470.25,432.9z M466.8,424.7h5.98c0.02-0.14,0.03-0.3,0.04-0.5c0.01-0.2,0.02-0.38,0.02-0.53
			c0-0.98-0.21-1.78-0.63-2.41c-0.42-0.63-1.13-0.94-2.12-0.94c-0.44,0-0.85,0.07-1.23,0.22c-0.38,0.14-0.72,0.38-1.01,0.72
			c-0.29,0.34-0.53,0.79-0.7,1.35C466.96,423.16,466.85,423.86,466.8,424.7z"/>
		<path class="st1" d="M482.26,432.9c-0.75,0-1.44-0.14-2.07-0.42c-0.63-0.28-1.14-0.71-1.53-1.28s-0.58-1.29-0.58-2.17
			c0-0.81,0.23-1.49,0.68-2.06c0.45-0.56,1.07-1.02,1.85-1.36s1.66-0.6,2.65-0.77c0.99-0.17,2.02-0.26,3.09-0.28v-0.85
			c0-0.72-0.08-1.29-0.24-1.7c-0.16-0.42-0.45-0.71-0.85-0.89c-0.41-0.18-0.99-0.26-1.74-0.26c-0.97,0-1.82,0.15-2.55,0.44
			c-0.73,0.3-1.29,0.55-1.69,0.76l-0.64-1.26c0.17-0.14,0.53-0.36,1.08-0.64s1.22-0.54,2-0.78c0.78-0.24,1.6-0.35,2.45-0.35
			c1.17,0,2.1,0.16,2.78,0.49c0.68,0.32,1.17,0.83,1.47,1.52c0.29,0.69,0.44,1.59,0.44,2.71v7.67h1.47v1.07
			c-0.18,0.04-0.43,0.09-0.73,0.14c-0.3,0.06-0.62,0.11-0.96,0.15c-0.34,0.04-0.65,0.07-0.93,0.07c-0.43,0-0.74-0.06-0.92-0.19
			c-0.18-0.13-0.27-0.43-0.27-0.9v-0.77c-0.21,0.2-0.51,0.45-0.92,0.76c-0.41,0.3-0.89,0.57-1.46,0.81
			C483.57,432.78,482.95,432.9,482.26,432.9z M483.34,431.26c0.44,0,0.94-0.13,1.51-0.38c0.57-0.25,1.07-0.56,1.5-0.92v-4.13
			c-1.25,0.01-2.27,0.14-3.08,0.4c-0.8,0.26-1.4,0.6-1.8,1.04c-0.39,0.44-0.59,0.93-0.59,1.48c0,0.6,0.11,1.08,0.32,1.45
			c0.22,0.37,0.51,0.64,0.88,0.8C482.46,431.17,482.87,431.26,483.34,431.26z"/>
		<path class="st1" d="M493.07,432.64v-1.18l1.86-0.16v-10.14l-1.79-0.42v-1.31l3.44-0.42h0.06l0.54,0.42v0.43l-0.06,2.12h0.06
			c0.07-0.13,0.23-0.35,0.46-0.65c0.23-0.31,0.55-0.63,0.94-0.98c0.39-0.34,0.87-0.64,1.41-0.88c0.55-0.24,1.17-0.37,1.87-0.37
			c0.24,0,0.43,0.01,0.57,0.04c0.14,0.03,0.26,0.05,0.35,0.08v2.58c-0.1-0.06-0.28-0.13-0.53-0.19c-0.25-0.06-0.58-0.09-0.98-0.09
			c-0.67,0-1.25,0.08-1.72,0.25c-0.47,0.16-0.87,0.35-1.19,0.56c-0.32,0.21-0.6,0.4-0.83,0.57v8.36l3.15,0.2v1.15H493.07z"/>
		<path class="st1" d="M510.13,432.9c-0.62,0-1.24-0.06-1.87-0.17c-0.62-0.12-1.19-0.25-1.7-0.41c-0.51-0.16-0.9-0.29-1.18-0.41
			v-3.07h1.63l0.45,1.87c0.11,0.15,0.3,0.3,0.58,0.45c0.28,0.15,0.61,0.27,0.98,0.35c0.38,0.09,0.77,0.13,1.19,0.13
			c0.66,0,1.19-0.08,1.59-0.25c0.41-0.16,0.7-0.39,0.88-0.69c0.18-0.3,0.27-0.64,0.27-1.03c0-0.46-0.15-0.84-0.45-1.16
			c-0.3-0.32-0.73-0.61-1.29-0.87c-0.56-0.26-1.24-0.54-2.05-0.84c-0.81-0.3-1.49-0.65-2.04-1.03c-0.54-0.38-0.95-0.84-1.23-1.36
			c-0.28-0.52-0.42-1.14-0.42-1.86c0-0.71,0.22-1.33,0.67-1.86c0.44-0.53,1.05-0.94,1.81-1.24c0.76-0.3,1.62-0.44,2.58-0.44
			c0.71,0,1.34,0.05,1.88,0.15c0.54,0.1,0.99,0.21,1.36,0.32c0.37,0.12,0.65,0.2,0.85,0.26v2.98h-1.51l-0.5-1.78
			c-0.08-0.13-0.22-0.24-0.44-0.35c-0.22-0.1-0.48-0.19-0.78-0.25c-0.3-0.06-0.62-0.1-0.94-0.1c-0.51-0.01-0.96,0.06-1.35,0.21
			c-0.39,0.15-0.68,0.35-0.89,0.62c-0.21,0.26-0.31,0.58-0.31,0.94c0,0.56,0.16,1.01,0.47,1.34c0.31,0.33,0.71,0.61,1.21,0.82
			s1.02,0.44,1.56,0.66c0.54,0.22,1.07,0.44,1.58,0.68c0.51,0.24,0.98,0.51,1.38,0.82c0.41,0.31,0.73,0.69,0.98,1.12
			c0.25,0.44,0.37,0.96,0.37,1.57c0,0.78-0.21,1.45-0.64,2.03c-0.42,0.58-1.04,1.03-1.84,1.36
			C512.2,432.74,511.24,432.9,510.13,432.9z"/>
		<path class="st1" d="M525.71,425.93c0-1.12,0.18-2.11,0.55-2.98c0.36-0.87,0.86-1.6,1.49-2.19c0.63-0.59,1.33-1.04,2.12-1.34
			s1.6-0.46,2.43-0.46c1.45,0,2.64,0.31,3.57,0.92c0.93,0.62,1.62,1.45,2.06,2.5c0.44,1.05,0.67,2.23,0.67,3.55
			c0,1.13-0.18,2.13-0.55,2.99c-0.36,0.87-0.86,1.6-1.49,2.19c-0.63,0.59-1.33,1.04-2.12,1.34c-0.78,0.3-1.6,0.45-2.43,0.45
			c-1.09,0-2.03-0.18-2.83-0.53c-0.8-0.35-1.45-0.84-1.96-1.48c-0.51-0.63-0.89-1.37-1.14-2.21
			C525.84,427.84,525.71,426.92,525.71,425.93z M532.17,431.53c0.75,0,1.38-0.2,1.91-0.6c0.53-0.4,0.93-1,1.21-1.81
			c0.28-0.8,0.42-1.81,0.42-3.02c0-0.82-0.06-1.59-0.19-2.29s-0.33-1.32-0.6-1.84c-0.27-0.52-0.64-0.93-1.09-1.22
			c-0.45-0.29-1-0.43-1.65-0.43c-0.76,0-1.4,0.2-1.93,0.6c-0.53,0.4-0.94,1-1.22,1.8c-0.28,0.8-0.42,1.81-0.42,3.02
			c0,0.83,0.07,1.6,0.2,2.3c0.13,0.7,0.34,1.32,0.62,1.84c0.28,0.52,0.65,0.92,1.11,1.21C530.99,431.39,531.54,431.53,532.17,431.53
			z"/>
		<path class="st1" d="M541.42,432.65v-1.2l2.11-0.2v-10.33h-2.34v-1.1l2.34-0.47v-1.16c0-0.76,0.16-1.47,0.47-2.13
			c0.32-0.66,0.74-1.24,1.28-1.73c0.54-0.5,1.15-0.88,1.83-1.16c0.68-0.28,1.39-0.42,2.12-0.42c0.41,0,0.72,0.02,0.94,0.07
			s0.4,0.09,0.54,0.14l-0.01,2.34c-0.15-0.12-0.43-0.23-0.83-0.33c-0.4-0.1-0.88-0.15-1.44-0.14c-0.53-0.01-0.96,0.07-1.3,0.24
			s-0.58,0.44-0.75,0.82s-0.24,0.89-0.24,1.54v1.91h3.44v1.61h-3.44v10.36l2.75,0.18v1.2H541.42z"/>
		<path class="st1" d="M566.74,432.83c-0.31-0.01-0.63-0.02-0.96-0.04c-0.34-0.02-0.68-0.04-1.03-0.07s-0.69-0.04-1.03-0.06
			c-0.34-0.02-0.68-0.02-1.01-0.02h-3.42v-1.19l2.08-0.23v-14.92l-1.96-0.29v-1.21h3.27c0.51,0,1.01-0.02,1.49-0.05
			c0.48-0.03,0.95-0.06,1.43-0.09c0.48-0.03,0.97-0.04,1.48-0.04c1.59,0,2.97,0.2,4.12,0.6c1.15,0.4,2.1,0.97,2.83,1.72
			c0.74,0.74,1.28,1.64,1.64,2.69c0.35,1.05,0.53,2.22,0.53,3.53c0,1.46-0.23,2.78-0.68,3.98c-0.45,1.2-1.1,2.22-1.93,3.08
			c-0.84,0.86-1.83,1.52-2.99,1.97C569.43,432.65,568.15,432.86,566.74,432.83z M566.99,431.49c1.23-0.02,2.32-0.32,3.26-0.9
			c0.95-0.58,1.69-1.46,2.23-2.62c0.54-1.16,0.81-2.6,0.81-4.33c0-1.25-0.14-2.35-0.41-3.31c-0.27-0.96-0.69-1.77-1.26-2.42
			c-0.56-0.65-1.28-1.15-2.14-1.48c-0.86-0.34-1.87-0.5-3.03-0.5c-0.34,0-0.66,0.01-0.96,0.04c-0.3,0.02-0.57,0.05-0.81,0.07
			c-0.25,0.02-0.46,0.04-0.65,0.05v15.22c0.33,0.06,0.66,0.11,0.99,0.14c0.33,0.03,0.65,0.05,0.98,0.05
			C566.31,431.5,566.65,431.49,566.99,431.49z"/>
		<path class="st1" d="M585.87,432.9c-1.39,0-2.55-0.29-3.47-0.89c-0.92-0.59-1.6-1.41-2.05-2.46c-0.45-1.05-0.68-2.26-0.68-3.62
			c0-1.06,0.16-2.01,0.48-2.87c0.32-0.86,0.77-1.59,1.35-2.2c0.58-0.61,1.27-1.08,2.06-1.41s1.66-0.49,2.61-0.49
			c1.55,0,2.76,0.41,3.61,1.24c0.85,0.82,1.31,2.01,1.36,3.55c0,0.48-0.01,0.9-0.03,1.26c-0.02,0.36-0.06,0.68-0.13,0.96h-8.57
			c0.02,0.77,0.12,1.47,0.3,2.12s0.45,1.2,0.81,1.67c0.36,0.47,0.8,0.84,1.32,1.09c0.52,0.26,1.13,0.38,1.82,0.38
			c0.7,0,1.4-0.12,2.12-0.36c0.71-0.24,1.26-0.51,1.63-0.8l0.49,1.06c-0.29,0.3-0.7,0.58-1.23,0.85c-0.53,0.27-1.12,0.49-1.78,0.67
			C587.22,432.82,586.55,432.9,585.87,432.9z M582.42,424.7h5.98c0.02-0.14,0.03-0.3,0.04-0.5c0.01-0.2,0.02-0.38,0.02-0.53
			c0-0.98-0.21-1.78-0.63-2.41c-0.42-0.63-1.13-0.94-2.12-0.94c-0.44,0-0.85,0.07-1.23,0.22c-0.38,0.14-0.72,0.38-1.01,0.72
			c-0.29,0.34-0.53,0.79-0.7,1.35C582.58,423.16,582.47,423.86,582.42,424.7z"/>
		<path class="st1" d="M595.77,431.25v-10.08l-1.78-0.42v-1.31l3.55-0.42h0.08l0.52,0.42v1l-0.03,0.6c0.37-0.31,0.83-0.62,1.4-0.94
			c0.56-0.31,1.18-0.57,1.84-0.78c0.66-0.21,1.31-0.31,1.96-0.31c1.06,0,1.88,0.19,2.46,0.58c0.59,0.38,1,0.98,1.24,1.79
			c0.24,0.81,0.36,1.86,0.36,3.14v6.76l1.73,0.17v1.2h-5.9v-1.19l1.53-0.18v-6.74c0-0.87-0.07-1.59-0.2-2.15
			c-0.14-0.56-0.39-0.98-0.77-1.25c-0.37-0.27-0.92-0.4-1.63-0.4c-0.44,0-0.89,0.07-1.34,0.22c-0.46,0.15-0.89,0.33-1.3,0.55
			c-0.41,0.22-0.77,0.44-1.07,0.67v9.08l1.69,0.2v1.19h-5.92v-1.19L595.77,431.25z"/>
		<path class="st1" d="M615.43,432.89c-0.91,0-1.6-0.2-2.09-0.61c-0.49-0.4-0.73-1.13-0.73-2.18v-9.19h-1.78v-1.12
			c0.17-0.04,0.35-0.09,0.55-0.14c0.2-0.05,0.39-0.1,0.56-0.16s0.3-0.11,0.39-0.16c0.1-0.07,0.18-0.15,0.25-0.23
			c0.07-0.08,0.13-0.17,0.19-0.28c0.06-0.1,0.12-0.23,0.17-0.38c0.08-0.2,0.17-0.47,0.27-0.82c0.1-0.34,0.19-0.68,0.29-1.02
			s0.16-0.59,0.21-0.77h1.48l0.04,3.46h4.15v1.61h-4.14v7.36c0,0.87,0.04,1.5,0.11,1.9c0.07,0.39,0.21,0.64,0.42,0.75
			s0.53,0.16,0.95,0.16c0.47,0,0.98-0.06,1.51-0.18c0.53-0.12,0.93-0.24,1.21-0.36l0.39,1.08c-0.26,0.19-0.62,0.39-1.09,0.58
			c-0.47,0.2-0.99,0.36-1.56,0.49C616.58,432.82,616.01,432.89,615.43,432.89z"/>
		<path class="st1" d="M626.33,432.9c-0.75,0-1.44-0.14-2.07-0.42c-0.63-0.28-1.14-0.71-1.53-1.28s-0.58-1.29-0.58-2.17
			c0-0.81,0.23-1.49,0.68-2.06c0.45-0.56,1.07-1.02,1.85-1.36s1.66-0.6,2.65-0.77c0.99-0.17,2.02-0.26,3.09-0.28v-0.85
			c0-0.72-0.08-1.29-0.24-1.7c-0.16-0.42-0.45-0.71-0.85-0.89c-0.41-0.18-0.99-0.26-1.74-0.26c-0.97,0-1.82,0.15-2.55,0.44
			c-0.73,0.3-1.29,0.55-1.69,0.76l-0.64-1.26c0.17-0.14,0.53-0.36,1.08-0.64c0.55-0.28,1.22-0.54,2-0.78
			c0.78-0.24,1.6-0.35,2.45-0.35c1.17,0,2.1,0.16,2.78,0.49c0.68,0.32,1.17,0.83,1.47,1.52c0.29,0.69,0.44,1.59,0.44,2.71v7.67h1.47
			v1.07c-0.18,0.04-0.43,0.09-0.73,0.14c-0.3,0.06-0.62,0.11-0.96,0.15c-0.34,0.04-0.65,0.07-0.93,0.07c-0.43,0-0.74-0.06-0.92-0.19
			c-0.18-0.13-0.27-0.43-0.27-0.9v-0.77c-0.21,0.2-0.51,0.45-0.92,0.76c-0.41,0.3-0.89,0.57-1.46,0.81
			C627.65,432.78,627.02,432.9,626.33,432.9z M627.42,431.26c0.44,0,0.94-0.13,1.51-0.38s1.07-0.56,1.5-0.92v-4.13
			c-1.25,0.01-2.27,0.14-3.08,0.4c-0.8,0.26-1.4,0.6-1.8,1.04c-0.39,0.44-0.59,0.93-0.59,1.48c0,0.6,0.11,1.08,0.32,1.45
			c0.22,0.37,0.51,0.64,0.88,0.8C626.53,431.17,626.95,431.26,627.42,431.26z"/>
		<path class="st1" d="M639.02,431.25v-16.51l-2.02-0.25v-1.06l4.01-0.44h0.04l0.55,0.36v17.93l2.15,0.18v1.19h-6.75v-1.19
			L639.02,431.25z"/>
		<path class="st1" d="M655.66,431.22v-14.92l-2.04-0.29v-1.21h12.8l0.35,3.73h-1.42l-0.8-2.34l-6.19-0.14v6.73l4.12-0.07l0.36-1.98
			h1.38v5.51h-1.38l-0.35-2.06l-4.14-0.06v7.18l6.95-0.24l1.42-3.08l1.46,0.42l-0.76,4.25H653.6v-1.19L655.66,431.22z"/>
		<path class="st1" d="M671.62,431.25l4.26-5.24l-4.22-5.27l-1.26-0.28v-1.15h6.15v1.15l-1.73,0.28l2.25,3.08l0.71,1.04l0.67-1.03
			l2.37-3.1l-1.82-0.28v-1.15h5.14v1.15l-1.41,0.28l-4.05,4.96l4.4,5.58l1.32,0.2v1.16h-6.28v-1.16l1.64-0.23l-2.28-3.24l-0.76-1.08
			l-0.66,1.06l-2.4,3.26l2.09,0.23v1.16h-5.67v-1.16L671.62,431.25z"/>
		<path class="st1" d="M692.58,432.9c-1.39,0-2.56-0.3-3.49-0.89c-0.93-0.6-1.63-1.41-2.09-2.44c-0.46-1.03-0.7-2.18-0.7-3.46
			c-0.01-0.98,0.14-1.91,0.44-2.77s0.74-1.62,1.33-2.28c0.59-0.66,1.32-1.17,2.19-1.54c0.87-0.37,1.88-0.56,3.03-0.56
			c0.56,0,1.09,0.04,1.56,0.13c0.48,0.09,0.9,0.19,1.26,0.31c0.36,0.12,0.66,0.21,0.89,0.28l-0.12,3.7h-1.61l-0.56-2.44
			c-0.02-0.14-0.14-0.25-0.34-0.35c-0.2-0.1-0.44-0.18-0.71-0.24c-0.27-0.06-0.55-0.09-0.83-0.09c-0.75,0-1.4,0.19-1.96,0.58
			c-0.56,0.39-0.99,0.96-1.31,1.72c-0.32,0.76-0.48,1.7-0.49,2.82c-0.01,0.99,0.09,1.86,0.29,2.59c0.2,0.74,0.49,1.34,0.86,1.82
			c0.37,0.48,0.8,0.84,1.3,1.08c0.5,0.24,1.04,0.36,1.63,0.36c0.51,0,0.98-0.05,1.43-0.16c0.45-0.11,0.85-0.24,1.22-0.4
			c0.36-0.16,0.68-0.32,0.93-0.49l0.47,0.97c-0.28,0.27-0.66,0.54-1.15,0.82c-0.48,0.27-1.02,0.5-1.62,0.67
			C693.85,432.81,693.23,432.9,692.58,432.9z"/>
		<path class="st1" d="M706.07,432.9c-1.39,0-2.55-0.29-3.47-0.89c-0.92-0.59-1.6-1.41-2.05-2.46c-0.45-1.05-0.68-2.26-0.68-3.62
			c0-1.06,0.16-2.01,0.48-2.87c0.32-0.86,0.77-1.59,1.35-2.2c0.58-0.61,1.27-1.08,2.06-1.41c0.79-0.33,1.66-0.49,2.61-0.49
			c1.55,0,2.76,0.41,3.61,1.24c0.85,0.82,1.31,2.01,1.36,3.55c0,0.48-0.01,0.9-0.03,1.26c-0.02,0.36-0.06,0.68-0.13,0.96h-8.57
			c0.02,0.77,0.12,1.47,0.3,2.12s0.45,1.2,0.81,1.67c0.36,0.47,0.8,0.84,1.32,1.09c0.52,0.26,1.13,0.38,1.82,0.38
			c0.7,0,1.4-0.12,2.12-0.36c0.71-0.24,1.26-0.51,1.63-0.8l0.49,1.06c-0.29,0.3-0.7,0.58-1.23,0.85c-0.53,0.27-1.12,0.49-1.78,0.67
			C707.42,432.82,706.75,432.9,706.07,432.9z M702.62,424.7h5.98c0.02-0.14,0.03-0.3,0.04-0.5c0.01-0.2,0.02-0.38,0.02-0.53
			c0-0.98-0.21-1.78-0.63-2.41c-0.42-0.63-1.13-0.94-2.12-0.94c-0.44,0-0.85,0.07-1.23,0.22c-0.38,0.14-0.72,0.38-1.01,0.72
			c-0.29,0.34-0.53,0.79-0.7,1.35C702.78,423.16,702.67,423.86,702.62,424.7z"/>
		<path class="st1" d="M715.89,431.25v-16.51l-2.02-0.25v-1.06l4.01-0.44h0.04l0.55,0.36v17.93l2.15,0.18v1.19h-6.75v-1.19
			L715.89,431.25z"/>
		<path class="st1" d="M724.85,431.25v-16.51l-2.02-0.25v-1.06l4.01-0.44h0.04l0.55,0.36v17.93l2.15,0.18v1.19h-6.75v-1.19
			L724.85,431.25z"/>
		<path class="st1" d="M738.21,432.9c-1.39,0-2.55-0.29-3.47-0.89c-0.92-0.59-1.6-1.41-2.05-2.46c-0.45-1.05-0.68-2.26-0.68-3.62
			c0-1.06,0.16-2.01,0.48-2.87c0.32-0.86,0.77-1.59,1.35-2.2c0.58-0.61,1.27-1.08,2.06-1.41s1.66-0.49,2.61-0.49
			c1.55,0,2.76,0.41,3.61,1.24c0.85,0.82,1.31,2.01,1.36,3.55c0,0.48-0.01,0.9-0.03,1.26c-0.02,0.36-0.06,0.68-0.13,0.96h-8.57
			c0.02,0.77,0.12,1.47,0.3,2.12c0.18,0.64,0.45,1.2,0.81,1.67c0.36,0.47,0.8,0.84,1.32,1.09c0.52,0.26,1.13,0.38,1.82,0.38
			c0.7,0,1.4-0.12,2.12-0.36c0.71-0.24,1.26-0.51,1.63-0.8l0.49,1.06c-0.29,0.3-0.7,0.58-1.23,0.85c-0.53,0.27-1.12,0.49-1.78,0.67
			S738.89,432.9,738.21,432.9z M734.76,424.7h5.98c0.02-0.14,0.03-0.3,0.04-0.5c0.01-0.2,0.02-0.38,0.02-0.53
			c0-0.98-0.21-1.78-0.63-2.41c-0.42-0.63-1.13-0.94-2.12-0.94c-0.44,0-0.85,0.07-1.23,0.22c-0.38,0.14-0.72,0.38-1.01,0.72
			c-0.29,0.34-0.53,0.79-0.7,1.35C734.92,423.16,734.81,423.86,734.76,424.7z"/>
		<path class="st1" d="M748.11,431.25v-10.08l-1.78-0.42v-1.31l3.55-0.42h0.08l0.52,0.42v1l-0.03,0.6c0.37-0.31,0.83-0.62,1.4-0.94
			c0.56-0.31,1.18-0.57,1.84-0.78s1.31-0.31,1.96-0.31c1.06,0,1.88,0.19,2.46,0.58c0.59,0.38,1,0.98,1.24,1.79
			c0.24,0.81,0.36,1.86,0.36,3.14v6.76l1.73,0.17v1.2h-5.9v-1.19l1.53-0.18v-6.74c0-0.87-0.07-1.59-0.2-2.15
			c-0.14-0.56-0.39-0.98-0.77-1.25c-0.37-0.27-0.92-0.4-1.63-0.4c-0.44,0-0.89,0.07-1.34,0.22c-0.46,0.15-0.89,0.33-1.3,0.55
			c-0.41,0.22-0.77,0.44-1.07,0.67v9.08l1.69,0.2v1.19h-5.92v-1.19L748.11,431.25z"/>
		<path class="st1" d="M770.25,432.9c-1.39,0-2.56-0.3-3.49-0.89c-0.93-0.6-1.63-1.41-2.09-2.44c-0.46-1.03-0.7-2.18-0.7-3.46
			c-0.01-0.98,0.14-1.91,0.44-2.77s0.74-1.62,1.33-2.28c0.59-0.66,1.32-1.17,2.19-1.54c0.87-0.37,1.88-0.56,3.03-0.56
			c0.56,0,1.09,0.04,1.56,0.13s0.9,0.19,1.26,0.31c0.36,0.12,0.66,0.21,0.89,0.28l-0.12,3.7h-1.61l-0.56-2.44
			c-0.02-0.14-0.14-0.25-0.34-0.35c-0.2-0.1-0.44-0.18-0.71-0.24c-0.27-0.06-0.55-0.09-0.83-0.09c-0.75,0-1.4,0.19-1.96,0.58
			c-0.56,0.39-0.99,0.96-1.31,1.72c-0.32,0.76-0.48,1.7-0.49,2.82c-0.01,0.99,0.09,1.86,0.29,2.59c0.2,0.74,0.49,1.34,0.86,1.82
			c0.37,0.48,0.8,0.84,1.3,1.08c0.5,0.24,1.04,0.36,1.63,0.36c0.51,0,0.98-0.05,1.43-0.16c0.45-0.11,0.85-0.24,1.22-0.4
			c0.36-0.16,0.68-0.32,0.93-0.49l0.47,0.97c-0.28,0.27-0.66,0.54-1.15,0.82c-0.48,0.27-1.02,0.5-1.62,0.67
			C771.52,432.81,770.89,432.9,770.25,432.9z"/>
		<path class="st1" d="M783.74,432.9c-1.39,0-2.55-0.29-3.47-0.89c-0.92-0.59-1.6-1.41-2.05-2.46c-0.45-1.05-0.68-2.26-0.68-3.62
			c0-1.06,0.16-2.01,0.48-2.87c0.32-0.86,0.77-1.59,1.35-2.2c0.58-0.61,1.27-1.08,2.06-1.41s1.66-0.49,2.61-0.49
			c1.55,0,2.76,0.41,3.61,1.24c0.85,0.82,1.31,2.01,1.36,3.55c0,0.48-0.01,0.9-0.03,1.26c-0.02,0.36-0.06,0.68-0.13,0.96h-8.57
			c0.02,0.77,0.12,1.47,0.3,2.12s0.45,1.2,0.81,1.67c0.36,0.47,0.8,0.84,1.32,1.09c0.52,0.26,1.13,0.38,1.82,0.38
			c0.7,0,1.4-0.12,2.12-0.36c0.71-0.24,1.26-0.51,1.63-0.8l0.49,1.06c-0.29,0.3-0.7,0.58-1.23,0.85c-0.53,0.27-1.12,0.49-1.78,0.67
			C785.09,432.82,784.42,432.9,783.74,432.9z M780.29,424.7h5.98c0.02-0.14,0.03-0.3,0.04-0.5c0.01-0.2,0.02-0.38,0.02-0.53
			c0-0.98-0.21-1.78-0.63-2.41c-0.42-0.63-1.13-0.94-2.12-0.94c-0.44,0-0.85,0.07-1.23,0.22c-0.38,0.14-0.72,0.38-1.01,0.72
			c-0.29,0.34-0.53,0.79-0.7,1.35C780.45,423.16,780.34,423.86,780.29,424.7z"/>
		<path class="st1" d="M792.6,431.37c0-0.5,0.19-0.92,0.58-1.24s0.82-0.49,1.3-0.49c0.56,0,0.97,0.15,1.24,0.46
			c0.27,0.3,0.4,0.66,0.4,1.06c0,0.53-0.19,0.95-0.57,1.26c-0.38,0.31-0.83,0.47-1.36,0.47c-0.41,0-0.77-0.14-1.1-0.41
			C792.77,432.2,792.6,431.83,792.6,431.37z M795.74,411.12l-0.7,15.8h-1.58l-0.76-15.8H795.74z"/>
	</g>
	<rect x="46.13" y="380.19" class="st1" width="750" height="2"/>
</g>
</svg>
