<?xml version="1.0" encoding="utf-8"?>
<!-- Generator: Adobe Illustrator 26.0.0, SVG Export Plug-In . SVG Version: 6.00 Build 0)  -->
<svg version="1.1" id="Layer_1" xmlns="http://www.w3.org/2000/svg" xmlns:xlink="http://www.w3.org/1999/xlink" x="0px" y="0px"
	 viewBox="0 0 841.9 595.3" style="enable-background:new 0 0 841.9 595.3;" xml:space="preserve">
<style type="text/css">
	.st0{fill:#AA935F;}
	.st1{fill:#FFFFFF;}
	.st2{fill:#707071;}
</style>
<g>
	<g>
		<g>
			<path class="st0" d="M46.1,313.4h9.9c4.5,0,8.2,0.9,11.2,2.7c3,1.8,5.1,4.1,6.5,6.9s2,5.8,2,8.9c0,3.5-0.8,6.6-2.4,9.3
				c-1.6,2.7-3.8,4.8-6.6,6.2c-2.7,1.5-5.7,2.2-8.9,2.2H46.1V313.4z M56.8,344.9c2.7,0,5.1-0.5,7.2-1.6c2.1-1,3.8-2.6,4.9-4.6
				c1.2-2,1.8-4.4,1.8-7.2c0-2.8-0.6-5.3-1.8-7.3c-1.2-2-2.9-3.6-4.9-4.6c-2-1-4.3-1.6-6.6-1.6H51V345L56.8,344.9L56.8,344.9z"/>
			<path class="st0" d="M107.4,313.4v4.7H88.8v11h16.7v4.7H88.8v11.2h19.4v4.7H83.9v-36.2L107.4,313.4L107.4,313.4z"/>
			<path class="st0" d="M148.2,313.4v37.4H148l-26.6-27l0.1,25.8h-4.9v-37.3h0.2l26.6,27.3l-0.1-26.2L148.2,313.4L148.2,313.4z"/>
			<path class="st0" d="M180,313.4v4.7h-9.7v31.5h-4.9v-31.5h-9.5v-4.7H180z"/>
			<path class="st0" d="M203.9,340.1h-13.9l-3.9,9.5h-4.8l15.8-37.7h0.3l15.8,37.7h-5.6L203.9,340.1z M202.2,335.9l-5.2-13.2
				l-5.4,13.2H202.2z"/>
			<path class="st0" d="M224.8,313.4v31.5h18.4v4.7H220v-36.2L224.8,313.4L224.8,313.4z"/>
			<path class="st0" d="M267,313.4h9.9c4.5,0,8.2,0.9,11.2,2.7c3,1.8,5.1,4.1,6.5,6.9s2,5.8,2,8.9c0,3.5-0.8,6.6-2.5,9.3
				c-1.6,2.7-3.8,4.8-6.6,6.2c-2.7,1.5-5.7,2.2-8.9,2.2H267L267,313.4L267,313.4z M277.7,344.9c2.7,0,5.1-0.5,7.2-1.6
				s3.8-2.6,4.9-4.6c1.2-2,1.8-4.4,1.8-7.2c0-2.8-0.6-5.3-1.9-7.3c-1.2-2-2.9-3.6-4.9-4.6c-2-1-4.3-1.6-6.6-1.6h-6.3V345
				L277.7,344.9L277.7,344.9z"/>
			<path class="st0" d="M309.6,313.4v36.2h-4.9v-36.2H309.6z"/>
			<path class="st0" d="M339,340.1h-13.9l-3.9,9.5h-4.8l15.8-37.7h0.3l15.8,37.7h-5.6L339,340.1z M337.3,335.9l-5.2-13.2l-5.4,13.2
				H337.3z"/>
			<path class="st0" d="M377,348.9c-2.4,0.7-4.5,1.1-6.5,1.1c-3.8,0-7.1-0.8-10-2.3s-5.1-3.7-6.6-6.4c-1.5-2.7-2.3-5.7-2.3-9.1
				c0-3.9,0.8-7.4,2.5-10.2c1.7-2.9,3.9-5.1,6.8-6.6s5.9-2.3,9.3-2.3c2,0,4,0.2,5.8,0.7c1.8,0.5,3.4,1.1,4.9,1.9l-1.6,4.5
				c-1.1-0.6-2.4-1.1-4-1.6c-1.6-0.5-3.1-0.7-4.4-0.7c-2.8,0-5.3,0.6-7.4,1.7c-2.1,1.1-3.8,2.8-5,4.9c-1.2,2.1-1.8,4.6-1.8,7.4
				c0,2.6,0.6,4.9,1.8,7c1.2,2,2.8,3.6,5,4.7c2.1,1.1,4.6,1.7,7.3,1.7c1.3,0,2.5-0.1,3.7-0.4c1.2-0.2,2.2-0.6,3-1.1v-7.2H370v-4.7
				h12.1v14.6C381.1,347.4,379.3,348.2,377,348.9z"/>
			<path class="st0" d="M423,313.4v37.4h-0.1l-26.6-27l0.1,25.8h-4.9v-37.3h0.2l26.5,27.3l-0.1-26.2L423,313.4L423,313.4z"/>
			<path class="st0" d="M433.6,322.4c1.7-2.8,3.9-5.1,6.7-6.8c2.8-1.7,5.9-2.5,9.2-2.5c3.3,0,6.4,0.8,9.2,2.5s5.1,4,6.8,6.8
				s2.5,5.9,2.5,9.2c0,3.3-0.8,6.4-2.5,9.3c-1.7,2.8-3.9,5.1-6.8,6.7c-2.9,1.6-5.9,2.5-9.2,2.5c-3.3,0-6.4-0.8-9.3-2.5
				c-2.8-1.6-5.1-3.9-6.7-6.7c-1.6-2.8-2.5-5.9-2.5-9.3C431.1,328.3,432,325.2,433.6,322.4z M438,338.5c1.2,2.1,2.9,3.8,4.9,5
				c2.1,1.2,4.4,1.9,6.8,1.9s4.7-0.6,6.8-1.8c2-1.2,3.7-2.9,4.9-5c1.2-2.1,1.8-4.4,1.8-6.9c0-2.5-0.6-4.8-1.8-7
				c-1.2-2.1-2.8-3.8-4.9-5.1c-2.1-1.2-4.3-1.9-6.8-1.9s-4.7,0.6-6.8,1.9s-3.7,3-4.9,5.1c-1.2,2.1-1.8,4.5-1.8,7
				C436.2,334.1,436.8,336.4,438,338.5z"/>
			<path class="st0" d="M490.9,318.2c-1.5-0.4-2.9-0.6-4.2-0.6c-2,0-3.5,0.4-4.7,1.3c-1.1,0.9-1.7,2.1-1.7,3.6c0,1.5,0.7,2.7,2,3.7
				c1.4,1,3.3,1.9,5.8,2.8c1.9,0.7,3.5,1.4,4.7,2.2c1.3,0.8,2.4,1.9,3.2,3.3c0.9,1.4,1.3,3.1,1.3,5.3c0,1.9-0.5,3.7-1.5,5.3
				s-2.4,2.8-4.1,3.7c-1.8,0.9-3.9,1.4-6.3,1.4c-2.2,0-4.4-0.4-6.5-1.1c-2.1-0.7-3.9-1.6-5.5-2.7l2.1-3.9c1.2,0.9,2.7,1.7,4.5,2.4
				s3.4,1,4.9,1c1.9,0,3.6-0.5,5.1-1.5c1.5-1,2.2-2.5,2.2-4.5c0-1.7-0.6-3-1.8-4s-2.9-1.9-5.1-2.8c-2-0.8-3.7-1.5-5.1-2.2
				c-1.4-0.7-2.5-1.7-3.5-3c-1-1.3-1.5-2.9-1.5-4.8c0-2.8,1-5.1,3-6.9c2-1.8,4.6-2.7,7.7-2.8c3.9,0,7.5,1,10.9,2.9l-1.9,3.8
				C493.8,319.2,492.4,318.6,490.9,318.2z"/>
			<path class="st0" d="M526.6,313.4v4.7h-9.7v31.5H512v-31.5h-9.5v-4.7H526.6z"/>
			<path class="st0" d="M539.2,313.4v36.2h-4.9v-36.2H539.2z"/>
			<path class="st0" d="M571.8,349.1c-1.8,0.6-3.7,1-5.8,1c-3.7,0-7-0.8-9.8-2.5c-2.8-1.6-5-3.8-6.5-6.6s-2.3-5.8-2.3-9.2
				c0-3.6,0.8-6.8,2.3-9.6c1.5-2.9,3.7-5.1,6.4-6.7c2.7-1.6,5.8-2.4,9.2-2.4c2,0,3.9,0.3,5.7,0.8s3.4,1.2,4.8,2.1l-2,4.6
				c-2.8-1.9-5.6-2.8-8.4-2.8c-2.3,0-4.5,0.6-6.5,1.9c-2,1.2-3.6,2.9-4.8,5s-1.8,4.5-1.8,7c0,2.6,0.5,5,1.6,7.1s2.6,3.8,4.7,4.9
				c2,1.2,4.3,1.8,7,1.8c3.2,0,6.1-0.9,8.5-2.8l2,4.4C575.1,347.7,573.6,348.4,571.8,349.1z"/>
			<path class="st0" d="M622.4,349.1c-1.8,0.6-3.7,1-5.8,1c-3.7,0-7-0.8-9.8-2.5c-2.8-1.6-5-3.8-6.5-6.6s-2.3-5.8-2.3-9.2
				c0-3.6,0.8-6.8,2.3-9.6c1.5-2.9,3.7-5.1,6.4-6.7c2.7-1.6,5.8-2.4,9.2-2.4c2,0,3.9,0.3,5.7,0.8s3.4,1.2,4.8,2.1l-2,4.6
				c-2.8-1.9-5.6-2.8-8.4-2.8c-2.3,0-4.5,0.6-6.5,1.9c-2,1.2-3.6,2.9-4.8,5s-1.8,4.5-1.8,7c0,2.6,0.5,5,1.6,7.1s2.6,3.8,4.7,4.9
				c2,1.2,4.3,1.8,7,1.8c3.2,0,6.1-0.9,8.5-2.8l2,4.4C625.7,347.7,624.2,348.4,622.4,349.1z"/>
			<path class="st0" d="M658.5,313.4v4.7h-18.7v11h16.7v4.7h-16.7v11.2h19.4v4.7H635v-36.2L658.5,313.4L658.5,313.4z"/>
			<path class="st0" d="M699.3,313.4v37.4h-0.2l-26.6-27l0.1,25.8h-4.9v-37.3h0.2l26.5,27.3l-0.1-26.2L699.3,313.4L699.3,313.4z"/>
			<path class="st0" d="M731.1,313.4v4.7h-9.7v31.5h-4.9v-31.5H707v-4.7H731.1z"/>
			<path class="st0" d="M758.8,349.6l-8.5-13.4c-0.3,0-0.7,0-1.2,0h-5.4v13.3h-4.9v-36.2h9.7c2.5,0,4.7,0.4,6.6,1.3s3.5,2.1,4.6,3.8
				c1.1,1.7,1.7,3.7,1.7,6.1c0,2.2-0.5,4.3-1.5,6.2c-1,1.9-2.5,3.3-4.5,4.3l9.1,14.6L758.8,349.6L758.8,349.6z M754.6,329.6
				c1.2-1.4,1.7-2.9,1.7-4.7c0-1.1-0.2-2.1-0.7-3.2s-1.2-1.9-2.3-2.6s-2.4-1-4-1h-5.6v13.5h5.3C751.5,331.6,753.4,330.9,754.6,329.6
				z"/>
			<path class="st0" d="M795.4,313.4v4.7h-18.7v11h16.7v4.7h-16.7v11.2h19.4v4.7h-24.2v-36.2L795.4,313.4L795.4,313.4z"/>
		</g>
	</g>
	<g>
		<g>
			<path class="st0" d="M285.2,175.6c0.7,0,1.3,0,1.9,0c10.3,0,20.6,0,30.9,0c2.7,0,5.4-0.1,8,0.2c9.2,1.2,17,5.4,23,12.4
				c5.7,6.6,9.9,14.2,14.3,21.6c3.6,6.1,7.2,12.2,10.8,18.4c0.2,0.4,0.3,0.8,0.3,1.2c0.1,10.1,0.2,20.2,0.2,30.3
				c0,1.7,0.6,2.1,2.2,2.1c14.7,0,29.5,0.1,44.2-0.1c4.6,0,9.3-0.4,13.7-1.4c14.3-3.4,25.3-11.5,32.5-24.5c0.4-0.7,0.4-1.8,0.1-2.5
				c-1.3-2.9-2.8-5.7-4.4-8.5c-1-1.7-2.2-3.3-3.4-5c-0.2,0.6-0.4,1-0.5,1.4c-1.6,6.6-5,12.1-9.7,16.8c-6.8,6.7-15,10.6-24.6,10.8
				c-10.8,0.2-21.6,0.1-32.4,0.1c-1.2,0-2.4,0-3.5,0c0-6.8,0-13.3,0-19.8c0-0.8-0.1-1.6-0.5-2.2c-3.5-5.6-7.3-11.1-10.7-16.8
				c-4.4-7.2-8.4-14.7-12.9-21.9c-3.3-5.4-7.3-10.4-12.3-14.4c-10.2-8.2-22-11.5-35-11.4c-14.5,0.1-29,0-43.5,0
				c-2.5,0-2.8,0.2-2.8,2.7c0,30.9,0,61.7,0,92.6c0,1.4,0.2,2.7,0.3,4.2c0.8,0,1.5,0,2.2,0c15,0,30,0.1,45.1,0c3.8,0,7.7-0.3,11.4-1
				c15.4-3.1,27-11.5,34.7-25.2c0.6-1,0.6-1.9,0-2.9c-2.5-4.3-4.9-8.6-7.4-12.9c-0.1-0.2-0.4-0.3-0.6-0.5c-0.2,0.3-0.3,0.4-0.3,0.6
				c-1.6,8.4-6,15.1-12.4,20.4c-6.2,5.2-13.5,8.3-21.7,8.5c-11.9,0.2-23.9,0-35.8,0c-0.4,0-0.9-0.1-1.3-0.1
				C285.2,224.4,285.2,200.1,285.2,175.6z M388.1,209.9c0.2-0.1,0.4-0.2,0.6-0.2c0-0.6,0-1.1,0-1.6c0-10.2,0-20.4-0.1-30.7
				c0-1.4,0.4-1.8,1.8-1.8c10.3,0.1,20.7,0,31,0c2.5,0,5-0.1,7.5,0.3c9.1,1.2,16.6,5.5,22.5,12.4c3,3.4,5.7,7,8.1,10.8
				c4.8,7.5,9.1,15.2,13.8,22.7c3.4,5.4,6.9,10.7,10.6,15.9c4.5,6.3,9.4,12.1,16.1,16.2c10.9,6.7,22.5,9.5,35.1,7.3
				c15.1-2.6,26.7-10.7,34.7-23.9c0.4-0.7,0.7-1.4,1.2-2.4c-4.4,0-8.5,0.1-12.6,0c-1.8-0.1-3,0.5-4.1,1.8
				c-10.3,11.9-27.7,15.8-42.7,9c-8.2-3.7-13.6-10.2-18.7-17.1c-6.9-9.2-12.7-19.1-18.2-29.3c-4.1-7.6-8.7-15.1-14.7-21.3
				c-9.8-10.1-22.1-15.1-36.1-15.4c-15.7-0.4-31.4-0.1-47.1-0.2c-2.1,0-2.3,0.2-2.3,2.3c0,6.7,0,13.5,0,20.2c0,0.6,0.1,1.3,0.3,1.8
				c2.1,4.3,4.2,8.7,6.6,12.9C383.5,203.2,385.9,206.5,388.1,209.9z M491.1,204.6c0.3-1.1,0.5-1.6,0.6-2.2c1.5-5.5,4.1-10.6,8-14.7
				c8.8-9.5,19.7-13.4,32.5-11.7c9.7,1.3,17.4,6,23.6,13.4c0.4,0.5,1.3,0.9,1.9,0.9c3.8,0.1,7.7,0.1,11.5,0c0.4,0,0.8-0.1,1.9-0.2
				c-2.8-4.1-4.9-8.4-8-11.6c-13.1-13.9-29.3-18.6-47.9-14.3c-14.2,3.3-24.6,11.9-31.8,24.5c-0.7,1.2-0.6,2,0,3.1
				c2,3.4,3.9,6.8,5.9,10.2C489.8,202.7,490.3,203.5,491.1,204.6z"/>
			<path class="st0" d="M285.2,175.6c0,24.5,0,48.7,0,73.1c0.4,0.1,0.9,0.1,1.3,0.1c11.9,0,23.9,0.2,35.8,0
				c8.2-0.1,15.5-3.2,21.7-8.5c6.4-5.4,10.9-12.1,12.4-20.4c0-0.1,0.1-0.3,0.3-0.6c0.2,0.2,0.5,0.3,0.6,0.5
				c2.5,4.3,4.9,8.6,7.4,12.9c0.6,1,0.5,1.9,0,2.9c-7.7,13.7-19.3,22.2-34.7,25.2c-3.7,0.7-7.6,1-11.4,1c-15,0.1-30,0-45.1,0
				c-0.7,0-1.3,0-2.2,0c-0.1-1.5-0.3-2.9-0.3-4.2c0-30.9,0-61.7,0-92.6c0-2.5,0.2-2.7,2.8-2.7c14.5,0,29,0.1,43.5,0
				c13-0.1,24.8,3.2,35,11.4c5,4,9,9,12.3,14.4c4.4,7.2,8.5,14.7,12.9,21.9c3.4,5.7,7.2,11.2,10.7,16.8c0.4,0.6,0.5,1.5,0.5,2.2
				c0,6.5,0,13,0,19.8c1.2,0,2.4,0,3.5,0c10.8,0,21.6,0.1,32.4-0.1c9.6-0.2,17.8-4,24.6-10.8c4.7-4.7,8.1-10.2,9.7-16.8
				c0.1-0.4,0.3-0.8,0.5-1.4c1.2,1.7,2.5,3.3,3.4,5c1.6,2.8,3,5.6,4.4,8.5c0.3,0.7,0.3,1.8-0.1,2.5c-7.2,13-18.2,21.1-32.5,24.5
				c-4.4,1.1-9.1,1.4-13.7,1.4c-14.7,0.2-29.5,0-44.2,0.1c-1.6,0-2.2-0.4-2.2-2.1c0-10.1-0.1-20.2-0.2-30.3c0-0.4-0.1-0.9-0.3-1.2
				c-3.6-6.1-7.2-12.3-10.8-18.4c-4.4-7.4-8.6-15-14.3-21.6c-6.1-7.1-13.8-11.2-23-12.4c-2.6-0.4-5.3-0.2-8-0.2
				c-10.3,0-20.6,0-30.9,0C286.5,175.6,286,175.6,285.2,175.6z"/>
			<path class="st0" d="M388.1,209.9c-2.2-3.4-4.6-6.8-6.6-10.3c-2.4-4.2-4.4-8.6-6.6-12.9c-0.3-0.5-0.3-1.2-0.3-1.8
				c0-6.7,0-13.5,0-20.2c0-2.1,0.2-2.3,2.3-2.3c15.7,0,31.4-0.2,47.1,0.2c14,0.3,26.3,5.3,36.1,15.4c6.1,6.2,10.6,13.6,14.7,21.3
				c5.5,10.1,11.3,20,18.2,29.3c5.1,6.9,10.5,13.4,18.7,17.1c15,6.8,32.3,2.9,42.7-9c1.2-1.3,2.3-1.9,4.1-1.8c4.1,0.1,8.2,0,12.6,0
				c-0.5,0.9-0.8,1.7-1.2,2.4c-8,13.2-19.6,21.2-34.7,23.9c-12.6,2.2-24.2-0.6-35.1-7.3c-6.7-4.1-11.7-9.9-16.1-16.2
				c-3.7-5.2-7.2-10.5-10.6-15.9c-4.7-7.5-9.1-15.2-13.8-22.7c-2.4-3.8-5.1-7.4-8.1-10.8c-6-6.8-13.5-11.1-22.5-12.4
				c-2.5-0.3-5-0.3-7.5-0.3c-10.3,0-20.7,0-31,0c-1.4,0-1.8,0.4-1.8,1.8c0.1,10.2,0.1,20.4,0.1,30.7c0,0.6,0,1.1,0,1.6
				C388.5,209.8,388.3,209.9,388.1,209.9z"/>
			<path class="st0" d="M491.1,204.6c-0.7-1.1-1.3-1.9-1.8-2.7c-2-3.4-3.9-6.8-5.9-10.2c-0.6-1.1-0.7-1.9,0-3.1
				c7.2-12.6,17.6-21.2,31.8-24.5c18.5-4.4,34.8,0.3,47.9,14.3c3.1,3.3,5.2,7.5,8,11.6c-1,0.1-1.5,0.2-1.9,0.2
				c-3.8,0-7.7,0.1-11.5,0c-0.7,0-1.5-0.4-1.9-0.9c-6.2-7.4-14-12.1-23.6-13.4c-12.8-1.7-23.8,2.2-32.5,11.7
				c-3.9,4.2-6.4,9.2-8,14.7C491.5,202.9,491.4,203.5,491.1,204.6z"/>
		</g>
	</g>
	<g>
		<path class="st1" d="M51.7,432.9c-0.9,0-1.8-0.1-2.5-0.3c-0.7-0.2-1.4-0.4-1.9-0.5s-0.9-0.3-1.2-0.3l0.2-4.3h1.6l0.5,3.1
			c0.2,0.2,0.4,0.3,0.8,0.5c0.3,0.1,0.7,0.3,1.2,0.4s0.9,0.1,1.5,0.1c0.9,0,1.6-0.1,2.2-0.4s1-0.6,1.2-1.1c0.3-0.5,0.4-1,0.4-1.6
			c0-0.7-0.2-1.2-0.6-1.7s-0.9-0.9-1.6-1.2s-1.4-0.7-2.2-1c-0.5-0.2-1-0.5-1.6-0.8s-1.1-0.6-1.6-1.1c-0.5-0.4-0.9-0.9-1.2-1.5
			s-0.5-1.3-0.5-2.1c0-0.9,0.2-1.7,0.7-2.4c0.5-0.7,1.2-1.2,2.1-1.6s2-0.6,3.3-0.6c0.6,0,1.2,0,1.7,0.1s1,0.2,1.4,0.3
			s0.8,0.2,1.1,0.3c0.3,0.1,0.5,0.1,0.7,0.2l-0.2,4h-1.5l-0.5-3c-0.1-0.1-0.3-0.2-0.5-0.3s-0.6-0.2-1-0.3c-0.4-0.1-0.8-0.1-1.2-0.1
			c-0.8,0-1.4,0.1-2,0.3c-0.5,0.2-0.9,0.5-1.2,0.9s-0.4,0.9-0.4,1.5c0,0.7,0.2,1.3,0.6,1.7c0.4,0.4,0.9,0.8,1.5,1.2
			c0.7,0.3,1.4,0.7,2.3,1.1c0.6,0.3,1.2,0.5,1.8,0.9c0.6,0.3,1.2,0.7,1.7,1.1s0.9,0.9,1.2,1.4s0.5,1.2,0.5,1.9
			c0,0.6-0.1,1.2-0.4,1.8s-0.7,1.2-1.2,1.7c-0.5,0.5-1.2,0.9-2.1,1.2C53.9,432.8,52.8,432.9,51.7,432.9z"/>
		<path class="st1" d="M61.2,432.6v-1.2l1.5-0.2v-10.1l-1.8-0.4v-1.3l3.5-0.4l0.4,0.3l0.2,1l0,0.8c0.4-0.3,0.8-0.6,1.4-1
			c0.6-0.3,1.2-0.6,1.9-0.8c0.7-0.2,1.2-0.3,1.8-0.3c0.9,0,1.6,0.1,2.1,0.4c0.5,0.3,0.9,0.7,1.2,1.4c0.3-0.3,0.8-0.5,1.3-0.8
			c0.5-0.3,1.1-0.5,1.8-0.7c0.6-0.2,1.3-0.3,1.9-0.3c0.8,0,1.4,0.1,1.9,0.3s0.9,0.5,1.2,1s0.5,1,0.7,1.7c0.1,0.7,0.2,1.5,0.2,2.5
			v6.7l1.8,0.2v1.2h-5.9v-1.2l1.5-0.2v-6.7c0-0.9-0.1-1.6-0.2-2.2c-0.1-0.6-0.4-1-0.8-1.3s-0.9-0.4-1.7-0.4c-0.4,0-0.8,0.1-1.2,0.2
			c-0.4,0.1-0.8,0.3-1.2,0.5c-0.4,0.2-0.7,0.4-0.9,0.5c0.1,0.2,0.1,0.5,0.1,0.8s0.1,0.6,0.1,0.9c0,0.3,0,0.6,0,1v6.7l1.8,0.2v1.2h-6
			v-1.2l1.6-0.2v-6.7c0-0.9-0.1-1.6-0.2-2.1c-0.1-0.6-0.3-1-0.7-1.2s-0.9-0.4-1.6-0.4c-0.6,0-1.3,0.1-2,0.5c-0.7,0.3-1.2,0.6-1.7,1
			v9.1l1.6,0.2v1.2L61.2,432.6L61.2,432.6z"/>
		<path class="st1" d="M86.9,432.6v-1.2l2-0.2v-10.1l-1.9-0.4v-1.3l3.9-0.4H91l0.6,0.4v11.8l2,0.2v1.2H86.9z M90.1,416.9
			c-0.5,0-0.9-0.2-1.2-0.5s-0.4-0.7-0.4-1.1c0-0.5,0.2-0.9,0.4-1.2s0.7-0.5,1.3-0.5h0c0.5,0,0.9,0.1,1.2,0.5
			c0.3,0.3,0.4,0.7,0.4,1.1c0,0.5-0.2,0.9-0.4,1.2S90.7,416.9,90.1,416.9L90.1,416.9z"/>
		<path class="st1" d="M97.9,431.2v-16.5l-2-0.2v-1.1l4-0.4h0l0.6,0.4v17.9l2.2,0.2v1.2h-6.8v-1.2L97.9,431.2z"/>
		<path class="st1" d="M111.3,432.9c-1.4,0-2.6-0.3-3.5-0.9c-0.9-0.6-1.6-1.4-2.1-2.5c-0.4-1-0.7-2.3-0.7-3.6c0-1.1,0.2-2,0.5-2.9
			s0.8-1.6,1.3-2.2c0.6-0.6,1.3-1.1,2.1-1.4s1.7-0.5,2.6-0.5c1.6,0,2.8,0.4,3.6,1.2c0.8,0.8,1.3,2,1.4,3.5c0,0.5,0,0.9,0,1.3
			c0,0.4-0.1,0.7-0.1,1h-8.6c0,0.8,0.1,1.5,0.3,2.1s0.4,1.2,0.8,1.7s0.8,0.8,1.3,1.1c0.5,0.3,1.1,0.4,1.8,0.4c0.7,0,1.4-0.1,2.1-0.4
			c0.7-0.2,1.3-0.5,1.6-0.8l0.5,1.1c-0.3,0.3-0.7,0.6-1.2,0.9c-0.5,0.3-1.1,0.5-1.8,0.7S112,432.9,111.3,432.9z M107.8,424.7h6
			c0-0.1,0-0.3,0-0.5s0-0.4,0-0.5c0-1-0.2-1.8-0.6-2.4s-1.1-0.9-2.1-0.9c-0.4,0-0.8,0.1-1.2,0.2c-0.4,0.1-0.7,0.4-1,0.7
			s-0.5,0.8-0.7,1.4C108,423.2,107.9,423.9,107.8,424.7z"/>
		<path class="st1" d="M124.7,432.9c-0.6,0-1.2-0.1-1.9-0.2c-0.6-0.1-1.2-0.2-1.7-0.4c-0.5-0.2-0.9-0.3-1.2-0.4v-3.1h1.6l0.4,1.9
			c0.1,0.1,0.3,0.3,0.6,0.5c0.3,0.1,0.6,0.3,1,0.4c0.4,0.1,0.8,0.1,1.2,0.1c0.7,0,1.2-0.1,1.6-0.2c0.4-0.2,0.7-0.4,0.9-0.7
			s0.3-0.6,0.3-1c0-0.5-0.2-0.8-0.4-1.2c-0.3-0.3-0.7-0.6-1.3-0.9s-1.2-0.5-2.1-0.8c-0.8-0.3-1.5-0.6-2-1c-0.5-0.4-0.9-0.8-1.2-1.4
			c-0.3-0.5-0.4-1.1-0.4-1.9c0-0.7,0.2-1.3,0.7-1.9c0.4-0.5,1.1-0.9,1.8-1.2c0.8-0.3,1.6-0.4,2.6-0.4c0.7,0,1.3,0,1.9,0.1
			s1,0.2,1.4,0.3c0.4,0.1,0.6,0.2,0.9,0.3v3h-1.5l-0.5-1.8c-0.1-0.1-0.2-0.2-0.4-0.4c-0.2-0.1-0.5-0.2-0.8-0.2
			c-0.3-0.1-0.6-0.1-0.9-0.1c-0.5,0-1,0.1-1.3,0.2s-0.7,0.4-0.9,0.6c-0.2,0.3-0.3,0.6-0.3,0.9c0,0.6,0.2,1,0.5,1.3s0.7,0.6,1.2,0.8
			c0.5,0.2,1,0.4,1.6,0.7s1.1,0.4,1.6,0.7s1,0.5,1.4,0.8c0.4,0.3,0.7,0.7,1,1.1c0.2,0.4,0.4,1,0.4,1.6c0,0.8-0.2,1.5-0.6,2
			c-0.4,0.6-1,1-1.8,1.4C126.8,432.7,125.8,432.9,124.7,432.9z"/>
		<path class="st1" d="M140.9,431.2l6.2-16.6h2.8l5.8,16.6l1.6,0.2v1.2h-6.6v-1.2l2-0.2l-1.2-3.5h-7.2l-1.2,3.5l2.1,0.2v1.2h-5.9
			l0-1.2L140.9,431.2z M151,426.3l-2.4-7.8l-0.6-2l-0.6,2l-2.7,7.7H151z"/>
		<path class="st1" d="M165.1,432.9c-1.4,0-2.6-0.3-3.5-0.9c-0.9-0.6-1.6-1.4-2.1-2.4c-0.5-1-0.7-2.2-0.7-3.5c0-1,0.1-1.9,0.4-2.8
			s0.7-1.6,1.3-2.3s1.3-1.2,2.2-1.5s1.9-0.6,3-0.6c0.6,0,1.1,0,1.6,0.1c0.5,0.1,0.9,0.2,1.3,0.3s0.7,0.2,0.9,0.3l-0.1,3.7h-1.6
			l-0.6-2.4c0-0.1-0.1-0.2-0.3-0.4s-0.4-0.2-0.7-0.2s-0.6-0.1-0.8-0.1c-0.8,0-1.4,0.2-2,0.6c-0.6,0.4-1,1-1.3,1.7
			c-0.3,0.8-0.5,1.7-0.5,2.8c0,1,0.1,1.9,0.3,2.6c0.2,0.7,0.5,1.3,0.9,1.8s0.8,0.8,1.3,1.1s1,0.4,1.6,0.4c0.5,0,1,0,1.4-0.2
			c0.4-0.1,0.9-0.2,1.2-0.4c0.4-0.2,0.7-0.3,0.9-0.5l0.5,1c-0.3,0.3-0.7,0.5-1.1,0.8c-0.5,0.3-1,0.5-1.6,0.7
			C166.4,432.8,165.7,432.9,165.1,432.9z"/>
		<path class="st1" d="M172.7,432.6v-1.2l1.9-0.2v-10.1l-1.8-0.4v-1.3l3.4-0.4h0.1l0.5,0.4v0.4l-0.1,2.1h0.1
			c0.1-0.1,0.2-0.4,0.5-0.6c0.2-0.3,0.6-0.6,0.9-1c0.4-0.3,0.9-0.6,1.4-0.9c0.6-0.2,1.2-0.4,1.9-0.4c0.2,0,0.4,0,0.6,0
			c0.1,0,0.3,0,0.4,0.1v2.6c-0.1-0.1-0.3-0.1-0.5-0.2s-0.6-0.1-1-0.1c-0.7,0-1.2,0.1-1.7,0.2c-0.5,0.2-0.9,0.4-1.2,0.6
			s-0.6,0.4-0.8,0.6v8.4l3.1,0.2v1.1L172.7,432.6L172.7,432.6z"/>
		<path class="st1" d="M184.2,425.9c0-1.1,0.2-2.1,0.6-3c0.4-0.9,0.9-1.6,1.5-2.2s1.3-1,2.1-1.3c0.8-0.3,1.6-0.5,2.4-0.5
			c1.4,0,2.6,0.3,3.6,0.9c0.9,0.6,1.6,1.5,2.1,2.5s0.7,2.2,0.7,3.5c0,1.1-0.2,2.1-0.6,3c-0.4,0.9-0.9,1.6-1.5,2.2s-1.3,1-2.1,1.3
			c-0.8,0.3-1.6,0.5-2.4,0.5c-1.1,0-2-0.2-2.8-0.5s-1.4-0.8-2-1.5c-0.5-0.6-0.9-1.4-1.1-2.2S184.2,426.9,184.2,425.9z M190.7,431.5
			c0.8,0,1.4-0.2,1.9-0.6s0.9-1,1.2-1.8c0.3-0.8,0.4-1.8,0.4-3c0-0.8-0.1-1.6-0.2-2.3s-0.3-1.3-0.6-1.8s-0.6-0.9-1.1-1.2
			s-1-0.4-1.6-0.4c-0.8,0-1.4,0.2-1.9,0.6s-0.9,1-1.2,1.8s-0.4,1.8-0.4,3c0,0.8,0.1,1.6,0.2,2.3c0.1,0.7,0.3,1.3,0.6,1.8
			s0.6,0.9,1.1,1.2C189.5,431.4,190.1,431.5,190.7,431.5z"/>
		<path class="st1" d="M205.1,432.9c-0.6,0-1.2-0.1-1.9-0.2c-0.6-0.1-1.2-0.2-1.7-0.4s-0.9-0.3-1.2-0.4v-3.1h1.6l0.4,1.9
			c0.1,0.1,0.3,0.3,0.6,0.5c0.3,0.1,0.6,0.3,1,0.4c0.4,0.1,0.8,0.1,1.2,0.1c0.7,0,1.2-0.1,1.6-0.2c0.4-0.2,0.7-0.4,0.9-0.7
			c0.2-0.3,0.3-0.6,0.3-1c0-0.5-0.1-0.8-0.4-1.2s-0.7-0.6-1.3-0.9s-1.2-0.5-2.1-0.8s-1.5-0.6-2-1c-0.5-0.4-0.9-0.8-1.2-1.4
			s-0.4-1.1-0.4-1.9c0-0.7,0.2-1.3,0.7-1.9c0.4-0.5,1.1-0.9,1.8-1.2s1.6-0.4,2.6-0.4c0.7,0,1.3,0,1.9,0.1c0.5,0.1,1,0.2,1.4,0.3
			c0.4,0.1,0.6,0.2,0.9,0.3v3h-1.5l-0.5-1.8c-0.1-0.1-0.2-0.2-0.4-0.4c-0.2-0.1-0.5-0.2-0.8-0.2s-0.6-0.1-0.9-0.1
			c-0.5,0-1,0.1-1.4,0.2s-0.7,0.4-0.9,0.6c-0.2,0.3-0.3,0.6-0.3,0.9c0,0.6,0.2,1,0.5,1.3s0.7,0.6,1.2,0.8s1,0.4,1.6,0.7
			s1.1,0.4,1.6,0.7s1,0.5,1.4,0.8c0.4,0.3,0.7,0.7,1,1.1c0.2,0.4,0.4,1,0.4,1.6c0,0.8-0.2,1.5-0.6,2c-0.4,0.6-1,1-1.8,1.4
			C207.1,432.7,206.2,432.9,205.1,432.9z"/>
		<path class="st1" d="M218.6,432.9c-0.6,0-1.2-0.1-1.9-0.2c-0.6-0.1-1.2-0.2-1.7-0.4s-0.9-0.3-1.2-0.4v-3.1h1.6l0.4,1.9
			c0.1,0.1,0.3,0.3,0.6,0.5c0.3,0.1,0.6,0.3,1,0.4s0.8,0.1,1.2,0.1c0.7,0,1.2-0.1,1.6-0.2c0.4-0.2,0.7-0.4,0.9-0.7
			c0.2-0.3,0.3-0.6,0.3-1c0-0.5-0.1-0.8-0.4-1.2s-0.7-0.6-1.3-0.9s-1.2-0.5-2.1-0.8s-1.5-0.6-2-1c-0.5-0.4-0.9-0.8-1.2-1.4
			s-0.4-1.1-0.4-1.9c0-0.7,0.2-1.3,0.7-1.9c0.4-0.5,1.1-0.9,1.8-1.2s1.6-0.4,2.6-0.4c0.7,0,1.3,0,1.9,0.1c0.5,0.1,1,0.2,1.4,0.3
			c0.4,0.1,0.6,0.2,0.9,0.3v3h-1.5l-0.5-1.8c-0.1-0.1-0.2-0.2-0.4-0.4c-0.2-0.1-0.5-0.2-0.8-0.2s-0.6-0.1-0.9-0.1
			c-0.5,0-1,0.1-1.4,0.2s-0.7,0.4-0.9,0.6c-0.2,0.3-0.3,0.6-0.3,0.9c0,0.6,0.2,1,0.5,1.3s0.7,0.6,1.2,0.8c0.5,0.2,1,0.4,1.6,0.7
			s1.1,0.4,1.6,0.7s1,0.5,1.4,0.8c0.4,0.3,0.7,0.7,1,1.1c0.2,0.4,0.4,1,0.4,1.6c0,0.8-0.2,1.5-0.6,2c-0.4,0.6-1,1-1.8,1.4
			C220.6,432.7,219.7,432.9,218.6,432.9z"/>
		<path class="st1" d="M242.8,432.9c-1.4,0-2.6-0.2-3.7-0.7c-1.1-0.5-2-1.1-2.8-1.9c-0.8-0.8-1.3-1.8-1.7-2.8s-0.6-2.2-0.6-3.5
			c0-1.5,0.2-2.8,0.7-4s1.1-2.1,1.9-3c0.8-0.8,1.8-1.4,2.9-1.8s2.4-0.6,3.9-0.6c0.6,0,1.3,0,1.9,0.1s1.2,0.1,1.8,0.2s1,0.2,1.4,0.3
			c0.4,0.1,0.7,0.1,0.9,0.1l-0.2,4.2h-1.8l-0.6-2.9c-0.1-0.1-0.3-0.2-0.6-0.3s-0.7-0.2-1.2-0.3s-1.1-0.1-1.8-0.1
			c-1.3,0-2.4,0.3-3.3,0.9c-0.9,0.6-1.6,1.4-2.1,2.5c-0.5,1.1-0.7,2.5-0.7,4.2c0,1.1,0.1,2.1,0.3,3.1s0.6,1.9,1,2.6
			c0.5,0.8,1.1,1.4,1.8,1.8s1.7,0.7,2.7,0.7c0.5,0,1,0,1.5-0.1s0.9-0.2,1.3-0.4s0.8-0.3,1.1-0.5v-5.3l-3.1-0.2v-1.4h7.3v1.4
			l-1.4,0.2v6.4c-0.3,0-0.7,0.1-1,0.1c-0.4,0.1-0.7,0.2-1.1,0.3s-0.8,0.2-1.3,0.4c-0.5,0.1-1,0.2-1.6,0.3S243.4,432.9,242.8,432.9z"
			/>
		<path class="st1" d="M260.3,432.9c-1.4,0-2.5-0.3-3.5-0.9c-0.9-0.6-1.6-1.4-2.1-2.5s-0.7-2.3-0.7-3.6c0-1.1,0.2-2,0.5-2.9
			c0.3-0.9,0.8-1.6,1.4-2.2c0.6-0.6,1.3-1.1,2.1-1.4c0.8-0.3,1.7-0.5,2.6-0.5c1.5,0,2.8,0.4,3.6,1.2c0.9,0.8,1.3,2,1.4,3.5
			c0,0.5,0,0.9,0,1.3c0,0.4-0.1,0.7-0.1,1h-8.6c0,0.8,0.1,1.5,0.3,2.1c0.2,0.6,0.5,1.2,0.8,1.7s0.8,0.8,1.3,1.1
			c0.5,0.3,1.1,0.4,1.8,0.4c0.7,0,1.4-0.1,2.1-0.4c0.7-0.2,1.3-0.5,1.6-0.8l0.5,1.1c-0.3,0.3-0.7,0.6-1.2,0.9
			c-0.5,0.3-1.1,0.5-1.8,0.7C261.7,432.8,261,432.9,260.3,432.9z M256.9,424.7h6c0-0.1,0-0.3,0-0.5s0-0.4,0-0.5c0-1-0.2-1.8-0.6-2.4
			s-1.1-0.9-2.1-0.9c-0.4,0-0.9,0.1-1.2,0.2c-0.4,0.1-0.7,0.4-1,0.7s-0.5,0.8-0.7,1.4C257,423.2,256.9,423.9,256.9,424.7z"/>
		<path class="st1" d="M270.2,431.2v-10.1l-1.8-0.4v-1.3l3.5-0.4h0.1l0.5,0.4v1l0,0.6c0.4-0.3,0.8-0.6,1.4-0.9
			c0.6-0.3,1.2-0.6,1.8-0.8s1.3-0.3,2-0.3c1.1,0,1.9,0.2,2.5,0.6c0.6,0.4,1,1,1.2,1.8s0.4,1.9,0.4,3.1v6.8l1.7,0.2v1.2h-5.9v-1.2
			l1.5-0.2v-6.7c0-0.9-0.1-1.6-0.2-2.1c-0.1-0.6-0.4-1-0.8-1.2c-0.4-0.3-0.9-0.4-1.6-0.4c-0.4,0-0.9,0.1-1.4,0.2s-0.9,0.3-1.3,0.5
			c-0.4,0.2-0.8,0.4-1.1,0.7v9.1l1.7,0.2v1.2h-5.9v-1.2L270.2,431.2z"/>
		<path class="st1" d="M292.3,432.9c-1.4,0-2.5-0.3-3.5-0.9c-0.9-0.6-1.6-1.4-2-2.5c-0.5-1-0.7-2.3-0.7-3.6c0-1.1,0.2-2,0.5-2.9
			s0.8-1.6,1.4-2.2c0.6-0.6,1.3-1.1,2.1-1.4c0.8-0.3,1.7-0.5,2.6-0.5c1.5,0,2.8,0.4,3.6,1.2c0.9,0.8,1.3,2,1.4,3.5
			c0,0.5,0,0.9,0,1.3c0,0.4-0.1,0.7-0.1,1h-8.6c0,0.8,0.1,1.5,0.3,2.1s0.5,1.2,0.8,1.7s0.8,0.8,1.3,1.1c0.5,0.3,1.1,0.4,1.8,0.4
			c0.7,0,1.4-0.1,2.1-0.4c0.7-0.2,1.3-0.5,1.6-0.8l0.5,1.1c-0.3,0.3-0.7,0.6-1.2,0.9c-0.5,0.3-1.1,0.5-1.8,0.7
			C293.7,432.8,293,432.9,292.3,432.9z M288.9,424.7h6c0-0.1,0-0.3,0-0.5s0-0.4,0-0.5c0-1-0.2-1.8-0.6-2.4s-1.1-0.9-2.1-0.9
			c-0.4,0-0.9,0.1-1.2,0.2c-0.4,0.1-0.7,0.4-1,0.7s-0.5,0.8-0.7,1.4C289,423.2,288.9,423.9,288.9,424.7z"/>
		<path class="st1" d="M300.5,432.6v-1.2l1.9-0.2v-10.1l-1.8-0.4v-1.3l3.4-0.4h0.1l0.5,0.4v0.4l-0.1,2.1h0.1
			c0.1-0.1,0.2-0.4,0.5-0.6c0.2-0.3,0.5-0.6,0.9-1c0.4-0.3,0.9-0.6,1.4-0.9c0.5-0.2,1.2-0.4,1.9-0.4c0.2,0,0.4,0,0.6,0
			s0.3,0,0.4,0.1v2.6c-0.1-0.1-0.3-0.1-0.5-0.2s-0.6-0.1-1-0.1c-0.7,0-1.2,0.1-1.7,0.2c-0.5,0.2-0.9,0.4-1.2,0.6s-0.6,0.4-0.8,0.6
			v8.4l3.1,0.2v1.1L300.5,432.6L300.5,432.6z"/>
		<path class="st1" d="M316.5,432.9c-0.8,0-1.4-0.1-2.1-0.4s-1.1-0.7-1.5-1.3c-0.4-0.6-0.6-1.3-0.6-2.2c0-0.8,0.2-1.5,0.7-2.1
			c0.5-0.6,1.1-1,1.9-1.4s1.7-0.6,2.6-0.8c1-0.2,2-0.3,3.1-0.3v-0.9c0-0.7-0.1-1.3-0.2-1.7c-0.2-0.4-0.5-0.7-0.9-0.9
			c-0.4-0.2-1-0.3-1.7-0.3c-1,0-1.8,0.1-2.5,0.4c-0.7,0.3-1.3,0.5-1.7,0.8l-0.6-1.3c0.2-0.1,0.5-0.4,1.1-0.6s1.2-0.5,2-0.8
			s1.6-0.4,2.5-0.4c1.2,0,2.1,0.2,2.8,0.5c0.7,0.3,1.2,0.8,1.5,1.5c0.3,0.7,0.4,1.6,0.4,2.7v7.7h1.5v1.1c-0.2,0-0.4,0.1-0.7,0.1
			c-0.3,0.1-0.6,0.1-1,0.1s-0.6,0.1-0.9,0.1c-0.4,0-0.7-0.1-0.9-0.2c-0.2-0.1-0.3-0.4-0.3-0.9V431c-0.2,0.2-0.5,0.5-0.9,0.8
			c-0.4,0.3-0.9,0.6-1.5,0.8C317.9,432.8,317.2,432.9,316.5,432.9z M317.6,431.3c0.4,0,0.9-0.1,1.5-0.4s1.1-0.6,1.5-0.9v-4.1
			c-1.2,0-2.3,0.1-3.1,0.4c-0.8,0.3-1.4,0.6-1.8,1c-0.4,0.4-0.6,0.9-0.6,1.5c0,0.6,0.1,1.1,0.3,1.5c0.2,0.4,0.5,0.6,0.9,0.8
			C316.7,431.2,317.1,431.3,317.6,431.3z"/>
		<path class="st1" d="M331.3,432.9c-0.9,0-1.6-0.2-2.1-0.6c-0.5-0.4-0.7-1.1-0.7-2.2v-9.2h-1.8v-1.1c0.2,0,0.4-0.1,0.5-0.1
			s0.4-0.1,0.6-0.2s0.3-0.1,0.4-0.2c0.1-0.1,0.2-0.1,0.2-0.2c0.1-0.1,0.1-0.2,0.2-0.3c0.1-0.1,0.1-0.2,0.2-0.4
			c0.1-0.2,0.2-0.5,0.3-0.8c0.1-0.3,0.2-0.7,0.3-1s0.2-0.6,0.2-0.8h1.5l0,3.5h4.1v1.6h-4.1v7.4c0,0.9,0,1.5,0.1,1.9
			c0.1,0.4,0.2,0.6,0.4,0.8c0.2,0.1,0.5,0.2,1,0.2c0.5,0,1-0.1,1.5-0.2s0.9-0.2,1.2-0.4l0.4,1.1c-0.3,0.2-0.6,0.4-1.1,0.6
			s-1,0.4-1.6,0.5C332.4,432.8,331.8,432.9,331.3,432.9z"/>
		<path class="st1" d="M338.3,432.6v-1.2l2-0.2v-10.1l-1.9-0.4v-1.3l3.9-0.4h0l0.6,0.4v11.8l2,0.2v1.2H338.3z M341.4,416.9
			c-0.5,0-0.9-0.2-1.2-0.5c-0.3-0.3-0.4-0.7-0.4-1.1c0-0.5,0.1-0.9,0.4-1.2s0.7-0.5,1.4-0.5h0c0.5,0,0.9,0.1,1.2,0.5
			c0.3,0.3,0.4,0.7,0.4,1.1c0,0.5-0.1,0.9-0.4,1.2S342,416.9,341.4,416.9L341.4,416.9z"/>
		<path class="st1" d="M347.4,425.9c0-1.1,0.2-2.1,0.5-3c0.4-0.9,0.9-1.6,1.5-2.2s1.3-1,2.1-1.3s1.6-0.5,2.4-0.5
			c1.5,0,2.6,0.3,3.6,0.9c0.9,0.6,1.6,1.5,2.1,2.5s0.7,2.2,0.7,3.5c0,1.1-0.2,2.1-0.5,3c-0.4,0.9-0.9,1.6-1.5,2.2s-1.3,1-2.1,1.3
			c-0.8,0.3-1.6,0.5-2.4,0.5c-1.1,0-2-0.2-2.8-0.5s-1.5-0.8-2-1.5c-0.5-0.6-0.9-1.4-1.1-2.2C347.5,427.8,347.4,426.9,347.4,425.9z
			 M353.9,431.5c0.8,0,1.4-0.2,1.9-0.6s0.9-1,1.2-1.8c0.3-0.8,0.4-1.8,0.4-3c0-0.8-0.1-1.6-0.2-2.3s-0.3-1.3-0.6-1.8
			c-0.3-0.5-0.6-0.9-1.1-1.2c-0.5-0.3-1-0.4-1.6-0.4c-0.8,0-1.4,0.2-1.9,0.6s-0.9,1-1.2,1.8s-0.4,1.8-0.4,3c0,0.8,0.1,1.6,0.2,2.3
			s0.3,1.3,0.6,1.8s0.6,0.9,1.1,1.2C352.7,431.4,353.2,431.5,353.9,431.5z"/>
		<path class="st1" d="M365,431.2v-10.1l-1.8-0.4v-1.3l3.5-0.4h0.1l0.5,0.4v1l0,0.6c0.4-0.3,0.8-0.6,1.4-0.9
			c0.6-0.3,1.2-0.6,1.8-0.8s1.3-0.3,2-0.3c1.1,0,1.9,0.2,2.5,0.6c0.6,0.4,1,1,1.2,1.8s0.4,1.9,0.4,3.1v6.8l1.7,0.2v1.2h-5.9v-1.2
			l1.5-0.2v-6.7c0-0.9-0.1-1.6-0.2-2.1c-0.1-0.6-0.4-1-0.8-1.2c-0.4-0.3-0.9-0.4-1.6-0.4c-0.4,0-0.9,0.1-1.4,0.2s-0.9,0.3-1.3,0.5
			c-0.4,0.2-0.8,0.4-1.1,0.7v9.1l1.7,0.2v1.2h-5.9v-1.2L365,431.2z"/>
		<path class="st1" d="M386,432.9c-0.6,0-1.2-0.1-1.9-0.2c-0.6-0.1-1.2-0.2-1.7-0.4s-0.9-0.3-1.2-0.4v-3.1h1.6l0.5,1.9
			c0.1,0.1,0.3,0.3,0.6,0.5c0.3,0.1,0.6,0.3,1,0.4c0.4,0.1,0.8,0.1,1.2,0.1c0.7,0,1.2-0.1,1.6-0.2c0.4-0.2,0.7-0.4,0.9-0.7
			s0.3-0.6,0.3-1c0-0.5-0.1-0.8-0.5-1.2c-0.3-0.3-0.7-0.6-1.3-0.9s-1.2-0.5-2-0.8s-1.5-0.6-2-1c-0.5-0.4-1-0.8-1.2-1.4
			s-0.4-1.1-0.4-1.9c0-0.7,0.2-1.3,0.7-1.9c0.4-0.5,1-0.9,1.8-1.2s1.6-0.4,2.6-0.4c0.7,0,1.3,0,1.9,0.1s1,0.2,1.4,0.3
			c0.4,0.1,0.6,0.2,0.9,0.3v3H389l-0.5-1.8c-0.1-0.1-0.2-0.2-0.4-0.4c-0.2-0.1-0.5-0.2-0.8-0.2s-0.6-0.1-0.9-0.1
			c-0.5,0-1,0.1-1.4,0.2s-0.7,0.4-0.9,0.6c-0.2,0.3-0.3,0.6-0.3,0.9c0,0.6,0.2,1,0.5,1.3s0.7,0.6,1.2,0.8s1,0.4,1.6,0.7
			s1.1,0.4,1.6,0.7c0.5,0.2,1,0.5,1.4,0.8c0.4,0.3,0.7,0.7,1,1.1c0.2,0.4,0.4,1,0.4,1.6c0,0.8-0.2,1.5-0.6,2c-0.4,0.6-1,1-1.8,1.4
			C388.1,432.7,387.1,432.9,386,432.9z"/>
		<path class="st1" d="M396.6,432.9c-0.4,0-0.8-0.1-1.1-0.4s-0.5-0.6-0.5-1.1c0-0.5,0.2-0.9,0.5-1.2s0.8-0.5,1.3-0.5
			c0.5,0,0.9,0.2,1.2,0.5c0.3,0.3,0.4,0.7,0.4,1.1c0,0.5-0.2,1-0.5,1.3C397.6,432.7,397.1,432.9,396.6,432.9z"/>
		<path class="st1" d="M410.3,431.6c0.2,0,0.5,0,0.8,0c0.3,0,0.5,0,0.7,0c1.2,0,2.3-0.2,3.3-0.7c1-0.5,1.8-1.1,2.4-1.8
			c0.6-0.8,0.9-1.6,0.9-2.5c0-0.8-0.1-1.5-0.4-2s-0.7-0.9-1.3-1.1s-1.2-0.4-2.1-0.4c-0.4,0-0.8,0-1.2,0.1s-0.9,0.2-1.3,0.3
			c-0.4,0.1-0.8,0.2-1.1,0.4l-0.8-0.5l1.2-8.7h7.6l0.2-0.5h1.6l-0.5,2.5h-7l-1.1,5.5c0.3-0.1,0.6-0.3,1-0.4s0.9-0.3,1.4-0.4
			s1-0.1,1.5-0.1c1.1,0,2,0.2,2.8,0.6s1.4,0.9,1.8,1.6c0.4,0.7,0.6,1.6,0.6,2.6c0,0.9-0.2,1.8-0.6,2.6s-1,1.5-1.9,2.2
			c-0.8,0.6-1.8,1.1-2.9,1.5c-1.1,0.4-2.4,0.5-3.8,0.5c-0.2,0-0.4,0-0.6,0s-0.4,0-0.6,0c-0.2,0-0.4-0.1-0.6-0.1L410.3,431.6
			L410.3,431.6z"/>
		<path class="st1" d="M431.5,432.9c-1.1,0-2.1-0.2-2.9-0.7s-1.5-1.1-2-2c-0.5-0.8-0.9-1.8-1.2-2.9s-0.4-2.3-0.4-3.6
			c0-1.9,0.3-3.5,0.9-4.9s1.5-2.4,2.5-3.1c1-0.7,2.2-1.1,3.5-1.1c1.1,0,2.1,0.2,3,0.6c0.8,0.4,1.5,1.1,2,1.9
			c0.5,0.8,0.9,1.8,1.2,2.9c0.2,1.1,0.4,2.3,0.4,3.7c0,1.9-0.3,3.5-0.9,4.9c-0.6,1.4-1.4,2.5-2.4,3.2S432.8,432.9,431.5,432.9z
			 M431.6,431.6c0.9,0,1.7-0.3,2.2-0.9s1-1.5,1.2-2.6c0.2-1.2,0.4-2.6,0.4-4.3c0-1.3-0.1-2.4-0.2-3.4c-0.1-1-0.4-1.8-0.7-2.5
			c-0.3-0.7-0.7-1.2-1.1-1.5s-1-0.5-1.7-0.5c-0.7,0-1.3,0.2-1.8,0.5s-0.9,0.8-1.2,1.4s-0.5,1.4-0.7,2.4c-0.1,1-0.2,2.1-0.2,3.4
			c0,1.2,0.1,2.3,0.2,3.3c0.1,1,0.4,1.9,0.7,2.6s0.7,1.3,1.2,1.7S431,431.6,431.6,431.6z"/>
		<path class="st1" d="M454.7,431.2v-5.5l-5.4-9.4l-1.5-0.3v-1.2h6.5v1.2l-2,0.3l3.4,6.4l0.8,1.8l0.9-1.8l3.4-6.4l-2-0.3v-1.2h5.7
			v1.2l-1.6,0.3l-5.4,9.4v5.5l2.8,0.2v1.2H452v-1.2L454.7,431.2z"/>
		<path class="st1" d="M470.2,432.9c-1.4,0-2.5-0.3-3.5-0.9c-0.9-0.6-1.6-1.4-2-2.5c-0.5-1-0.7-2.3-0.7-3.6c0-1.1,0.2-2,0.5-2.9
			s0.8-1.6,1.4-2.2c0.6-0.6,1.3-1.1,2.1-1.4c0.8-0.3,1.7-0.5,2.6-0.5c1.5,0,2.8,0.4,3.6,1.2c0.9,0.8,1.3,2,1.4,3.5
			c0,0.5,0,0.9,0,1.3c0,0.4-0.1,0.7-0.1,1h-8.6c0,0.8,0.1,1.5,0.3,2.1s0.5,1.2,0.8,1.7s0.8,0.8,1.3,1.1c0.5,0.3,1.1,0.4,1.8,0.4
			c0.7,0,1.4-0.1,2.1-0.4c0.7-0.2,1.3-0.5,1.6-0.8l0.5,1.1c-0.3,0.3-0.7,0.6-1.2,0.9c-0.5,0.3-1.1,0.5-1.8,0.7
			C471.6,432.8,470.9,432.9,470.2,432.9z M466.8,424.7h6c0-0.1,0-0.3,0-0.5s0-0.4,0-0.5c0-1-0.2-1.8-0.6-2.4s-1.1-0.9-2.1-0.9
			c-0.4,0-0.9,0.1-1.2,0.2c-0.4,0.1-0.7,0.4-1,0.7s-0.5,0.8-0.7,1.4C467,423.2,466.9,423.9,466.8,424.7z"/>
		<path class="st1" d="M482.3,432.9c-0.8,0-1.4-0.1-2.1-0.4s-1.1-0.7-1.5-1.3s-0.6-1.3-0.6-2.2c0-0.8,0.2-1.5,0.7-2.1
			c0.5-0.6,1.1-1,1.9-1.4s1.7-0.6,2.6-0.8c1-0.2,2-0.3,3.1-0.3v-0.9c0-0.7-0.1-1.3-0.2-1.7c-0.2-0.4-0.5-0.7-0.9-0.9
			c-0.4-0.2-1-0.3-1.7-0.3c-1,0-1.8,0.1-2.5,0.4c-0.7,0.3-1.3,0.5-1.7,0.8l-0.6-1.3c0.2-0.1,0.5-0.4,1.1-0.6s1.2-0.5,2-0.8
			s1.6-0.4,2.5-0.4c1.2,0,2.1,0.2,2.8,0.5c0.7,0.3,1.2,0.8,1.5,1.5c0.3,0.7,0.4,1.6,0.4,2.7v7.7h1.5v1.1c-0.2,0-0.4,0.1-0.7,0.1
			c-0.3,0.1-0.6,0.1-1,0.1s-0.6,0.1-0.9,0.1c-0.4,0-0.7-0.1-0.9-0.2c-0.2-0.1-0.3-0.4-0.3-0.9V431c-0.2,0.2-0.5,0.5-0.9,0.8
			c-0.4,0.3-0.9,0.6-1.5,0.8C483.6,432.8,483,432.9,482.3,432.9z M483.3,431.3c0.4,0,0.9-0.1,1.5-0.4s1.1-0.6,1.5-0.9v-4.1
			c-1.2,0-2.3,0.1-3.1,0.4c-0.8,0.3-1.4,0.6-1.8,1c-0.4,0.4-0.6,0.9-0.6,1.5c0,0.6,0.1,1.1,0.3,1.5c0.2,0.4,0.5,0.6,0.9,0.8
			C482.5,431.2,482.9,431.3,483.3,431.3z"/>
		<path class="st1" d="M493.1,432.6v-1.2l1.9-0.2v-10.1l-1.8-0.4v-1.3l3.4-0.4h0.1l0.5,0.4v0.4l-0.1,2.1h0.1
			c0.1-0.1,0.2-0.4,0.5-0.6c0.2-0.3,0.5-0.6,0.9-1c0.4-0.3,0.9-0.6,1.4-0.9c0.5-0.2,1.2-0.4,1.9-0.4c0.2,0,0.4,0,0.6,0
			s0.3,0,0.4,0.1v2.6c-0.1-0.1-0.3-0.1-0.5-0.2s-0.6-0.1-1-0.1c-0.7,0-1.2,0.1-1.7,0.2c-0.5,0.2-0.9,0.4-1.2,0.6s-0.6,0.4-0.8,0.6
			v8.4l3.1,0.2v1.1L493.1,432.6L493.1,432.6z"/>
		<path class="st1" d="M510.1,432.9c-0.6,0-1.2-0.1-1.9-0.2c-0.6-0.1-1.2-0.2-1.7-0.4s-0.9-0.3-1.2-0.4v-3.1h1.6l0.5,1.9
			c0.1,0.1,0.3,0.3,0.6,0.5c0.3,0.1,0.6,0.3,1,0.4c0.4,0.1,0.8,0.1,1.2,0.1c0.7,0,1.2-0.1,1.6-0.2c0.4-0.2,0.7-0.4,0.9-0.7
			s0.3-0.6,0.3-1c0-0.5-0.2-0.8-0.5-1.2s-0.7-0.6-1.3-0.9s-1.2-0.5-2-0.8s-1.5-0.6-2-1c-0.5-0.4-1-0.8-1.2-1.4s-0.4-1.1-0.4-1.9
			c0-0.7,0.2-1.3,0.7-1.9c0.4-0.5,1-0.9,1.8-1.2s1.6-0.4,2.6-0.4c0.7,0,1.3,0,1.9,0.1c0.5,0.1,1,0.2,1.4,0.3
			c0.4,0.1,0.7,0.2,0.8,0.3v3h-1.5l-0.5-1.8c-0.1-0.1-0.2-0.2-0.4-0.4c-0.2-0.1-0.5-0.2-0.8-0.2s-0.6-0.1-0.9-0.1
			c-0.5,0-1,0.1-1.4,0.2s-0.7,0.4-0.9,0.6c-0.2,0.3-0.3,0.6-0.3,0.9c0,0.6,0.2,1,0.5,1.3s0.7,0.6,1.2,0.8s1,0.4,1.6,0.7
			s1.1,0.4,1.6,0.7s1,0.5,1.4,0.8c0.4,0.3,0.7,0.7,1,1.1c0.2,0.4,0.4,1,0.4,1.6c0,0.8-0.2,1.5-0.6,2c-0.4,0.6-1,1-1.8,1.4
			C512.2,432.7,511.2,432.9,510.1,432.9z"/>
		<path class="st1" d="M525.7,425.9c0-1.1,0.2-2.1,0.5-3c0.4-0.9,0.9-1.6,1.5-2.2s1.3-1,2.1-1.3s1.6-0.5,2.4-0.5
			c1.5,0,2.6,0.3,3.6,0.9c0.9,0.6,1.6,1.5,2.1,2.5s0.7,2.2,0.7,3.5c0,1.1-0.2,2.1-0.5,3c-0.4,0.9-0.9,1.6-1.5,2.2s-1.3,1-2.1,1.3
			c-0.8,0.3-1.6,0.5-2.4,0.5c-1.1,0-2-0.2-2.8-0.5s-1.5-0.8-2-1.5c-0.5-0.6-0.9-1.4-1.1-2.2C525.8,427.8,525.7,426.9,525.7,425.9z
			 M532.2,431.5c0.8,0,1.4-0.2,1.9-0.6c0.5-0.4,0.9-1,1.2-1.8c0.3-0.8,0.4-1.8,0.4-3c0-0.8-0.1-1.6-0.2-2.3s-0.3-1.3-0.6-1.8
			c-0.3-0.5-0.6-0.9-1.1-1.2s-1-0.4-1.7-0.4c-0.8,0-1.4,0.2-1.9,0.6c-0.5,0.4-0.9,1-1.2,1.8c-0.3,0.8-0.4,1.8-0.4,3
			c0,0.8,0.1,1.6,0.2,2.3c0.1,0.7,0.3,1.3,0.6,1.8c0.3,0.5,0.7,0.9,1.1,1.2C531,431.4,531.5,431.5,532.2,431.5z"/>
		<path class="st1" d="M541.4,432.6v-1.2l2.1-0.2v-10.3h-2.3v-1.1l2.3-0.5v-1.2c0-0.8,0.2-1.5,0.5-2.1c0.3-0.7,0.7-1.2,1.3-1.7
			c0.5-0.5,1.2-0.9,1.8-1.2s1.4-0.4,2.1-0.4c0.4,0,0.7,0,0.9,0.1s0.4,0.1,0.5,0.1l0,2.3c-0.2-0.1-0.4-0.2-0.8-0.3
			c-0.4-0.1-0.9-0.1-1.4-0.1c-0.5,0-1,0.1-1.3,0.2s-0.6,0.4-0.8,0.8s-0.2,0.9-0.2,1.5v1.9h3.4v1.6h-3.4v10.4l2.8,0.2v1.2
			L541.4,432.6L541.4,432.6z"/>
		<path class="st1" d="M566.7,432.8c-0.3,0-0.6,0-1,0c-0.3,0-0.7,0-1-0.1s-0.7,0-1-0.1s-0.7,0-1,0h-3.4v-1.2l2.1-0.2v-14.9l-2-0.3
			v-1.2h3.3c0.5,0,1,0,1.5,0s1-0.1,1.4-0.1s1,0,1.5,0c1.6,0,3,0.2,4.1,0.6s2.1,1,2.8,1.7c0.7,0.7,1.3,1.6,1.6,2.7
			c0.3,1,0.5,2.2,0.5,3.5c0,1.5-0.2,2.8-0.7,4s-1.1,2.2-1.9,3.1c-0.8,0.9-1.8,1.5-3,2C569.4,432.6,568.2,432.9,566.7,432.8z
			 M567,431.5c1.2,0,2.3-0.3,3.3-0.9c1-0.6,1.7-1.5,2.2-2.6s0.8-2.6,0.8-4.3c0-1.2-0.1-2.4-0.4-3.3c-0.3-1-0.7-1.8-1.3-2.4
			c-0.6-0.6-1.3-1.1-2.1-1.5c-0.9-0.3-1.9-0.5-3-0.5c-0.3,0-0.7,0-1,0c-0.3,0-0.6,0-0.8,0.1c-0.2,0-0.5,0-0.7,0v15.2
			c0.3,0.1,0.7,0.1,1,0.1c0.3,0,0.7,0,1,0C566.3,431.5,566.7,431.5,567,431.5z"/>
		<path class="st1" d="M585.9,432.9c-1.4,0-2.5-0.3-3.5-0.9c-0.9-0.6-1.6-1.4-2-2.5s-0.7-2.3-0.7-3.6c0-1.1,0.2-2,0.5-2.9
			s0.8-1.6,1.3-2.2c0.6-0.6,1.3-1.1,2.1-1.4s1.7-0.5,2.6-0.5c1.5,0,2.8,0.4,3.6,1.2c0.8,0.8,1.3,2,1.4,3.5c0,0.5,0,0.9,0,1.3
			c0,0.4-0.1,0.7-0.1,1h-8.6c0,0.8,0.1,1.5,0.3,2.1s0.5,1.2,0.8,1.7s0.8,0.8,1.3,1.1c0.5,0.3,1.1,0.4,1.8,0.4c0.7,0,1.4-0.1,2.1-0.4
			c0.7-0.2,1.3-0.5,1.6-0.8l0.5,1.1c-0.3,0.3-0.7,0.6-1.2,0.9c-0.5,0.3-1.1,0.5-1.8,0.7C587.2,432.8,586.5,432.9,585.9,432.9z
			 M582.4,424.7h6c0-0.1,0-0.3,0-0.5c0-0.2,0-0.4,0-0.5c0-1-0.2-1.8-0.6-2.4s-1.1-0.9-2.1-0.9c-0.4,0-0.8,0.1-1.2,0.2
			c-0.4,0.1-0.7,0.4-1,0.7c-0.3,0.3-0.5,0.8-0.7,1.4C582.6,423.2,582.5,423.9,582.4,424.7z"/>
		<path class="st1" d="M595.8,431.2v-10.1l-1.8-0.4v-1.3l3.5-0.4h0.1l0.5,0.4v1l0,0.6c0.4-0.3,0.8-0.6,1.4-0.9
			c0.6-0.3,1.2-0.6,1.8-0.8c0.7-0.2,1.3-0.3,2-0.3c1.1,0,1.9,0.2,2.5,0.6c0.6,0.4,1,1,1.2,1.8s0.4,1.9,0.4,3.1v6.8l1.7,0.2v1.2h-5.9
			v-1.2l1.5-0.2v-6.7c0-0.9-0.1-1.6-0.2-2.1c-0.1-0.6-0.4-1-0.8-1.2c-0.4-0.3-0.9-0.4-1.6-0.4c-0.4,0-0.9,0.1-1.3,0.2
			c-0.5,0.1-0.9,0.3-1.3,0.5s-0.8,0.4-1.1,0.7v9.1l1.7,0.2v1.2h-5.9v-1.2L595.8,431.2z"/>
		<path class="st1" d="M615.4,432.9c-0.9,0-1.6-0.2-2.1-0.6c-0.5-0.4-0.7-1.1-0.7-2.2v-9.2h-1.8v-1.1c0.2,0,0.3-0.1,0.5-0.1
			c0.2,0,0.4-0.1,0.6-0.2s0.3-0.1,0.4-0.2c0.1-0.1,0.2-0.1,0.2-0.2c0.1-0.1,0.1-0.2,0.2-0.3c0.1-0.1,0.1-0.2,0.2-0.4
			c0.1-0.2,0.2-0.5,0.3-0.8c0.1-0.3,0.2-0.7,0.3-1s0.2-0.6,0.2-0.8h1.5l0,3.5h4.2v1.6h-4.1v7.4c0,0.9,0,1.5,0.1,1.9
			c0.1,0.4,0.2,0.6,0.4,0.8s0.5,0.2,1,0.2c0.5,0,1-0.1,1.5-0.2s0.9-0.2,1.2-0.4l0.4,1.1c-0.3,0.2-0.6,0.4-1.1,0.6
			c-0.5,0.2-1,0.4-1.6,0.5C616.6,432.8,616,432.9,615.4,432.9z"/>
		<path class="st1" d="M626.3,432.9c-0.8,0-1.4-0.1-2.1-0.4s-1.1-0.7-1.5-1.3s-0.6-1.3-0.6-2.2c0-0.8,0.2-1.5,0.7-2.1
			c0.5-0.6,1.1-1,1.8-1.4s1.7-0.6,2.7-0.8c1-0.2,2-0.3,3.1-0.3v-0.9c0-0.7-0.1-1.3-0.2-1.7c-0.2-0.4-0.5-0.7-0.8-0.9
			c-0.4-0.2-1-0.3-1.7-0.3c-1,0-1.8,0.1-2.5,0.4c-0.7,0.3-1.3,0.5-1.7,0.8l-0.6-1.3c0.2-0.1,0.5-0.4,1.1-0.6c0.5-0.3,1.2-0.5,2-0.8
			s1.6-0.4,2.5-0.4c1.2,0,2.1,0.2,2.8,0.5c0.7,0.3,1.2,0.8,1.5,1.5c0.3,0.7,0.4,1.6,0.4,2.7v7.7h1.5v1.1c-0.2,0-0.4,0.1-0.7,0.1
			c-0.3,0.1-0.6,0.1-1,0.1s-0.7,0.1-0.9,0.1c-0.4,0-0.7-0.1-0.9-0.2s-0.3-0.4-0.3-0.9V431c-0.2,0.2-0.5,0.5-0.9,0.8
			c-0.4,0.3-0.9,0.6-1.5,0.8C627.7,432.8,627,432.9,626.3,432.9z M627.4,431.3c0.4,0,0.9-0.1,1.5-0.4s1.1-0.6,1.5-0.9v-4.1
			c-1.2,0-2.3,0.1-3.1,0.4c-0.8,0.3-1.4,0.6-1.8,1c-0.4,0.4-0.6,0.9-0.6,1.5c0,0.6,0.1,1.1,0.3,1.5c0.2,0.4,0.5,0.6,0.9,0.8
			C626.5,431.2,627,431.3,627.4,431.3z"/>
		<path class="st1" d="M639,431.2v-16.5l-2-0.2v-1.1l4-0.4h0l0.5,0.4v17.9l2.2,0.2v1.2H637v-1.2L639,431.2z"/>
		<path class="st1" d="M655.7,431.2v-14.9l-2-0.3v-1.2h12.8l0.3,3.7h-1.4l-0.8-2.3l-6.2-0.1v6.7l4.1-0.1l0.4-2h1.4v5.5h-1.4
			l-0.3-2.1l-4.1-0.1v7.2l7-0.2l1.4-3.1l1.5,0.4l-0.8,4.2h-13.8v-1.2L655.7,431.2z"/>
		<path class="st1" d="M671.6,431.2l4.3-5.2l-4.2-5.3l-1.3-0.3v-1.1h6.2v1.1l-1.7,0.3l2.2,3.1l0.7,1l0.7-1l2.4-3.1l-1.8-0.3v-1.1
			h5.1v1.1l-1.4,0.3l-4,5l4.4,5.6l1.3,0.2v1.2h-6.3v-1.2l1.6-0.2l-2.3-3.2l-0.8-1.1l-0.7,1.1l-2.4,3.3l2.1,0.2v1.2h-5.7v-1.2
			L671.6,431.2z"/>
		<path class="st1" d="M692.6,432.9c-1.4,0-2.6-0.3-3.5-0.9c-0.9-0.6-1.6-1.4-2.1-2.4s-0.7-2.2-0.7-3.5c0-1,0.1-1.9,0.4-2.8
			s0.7-1.6,1.3-2.3s1.3-1.2,2.2-1.5s1.9-0.6,3-0.6c0.6,0,1.1,0,1.6,0.1c0.5,0.1,0.9,0.2,1.3,0.3s0.7,0.2,0.9,0.3l-0.1,3.7h-1.6
			l-0.6-2.4c0-0.1-0.1-0.2-0.3-0.4s-0.4-0.2-0.7-0.2s-0.5-0.1-0.8-0.1c-0.8,0-1.4,0.2-2,0.6c-0.6,0.4-1,1-1.3,1.7s-0.5,1.7-0.5,2.8
			c0,1,0.1,1.9,0.3,2.6c0.2,0.7,0.5,1.3,0.9,1.8s0.8,0.8,1.3,1.1s1,0.4,1.6,0.4c0.5,0,1,0,1.4-0.2c0.5-0.1,0.8-0.2,1.2-0.4
			c0.4-0.2,0.7-0.3,0.9-0.5l0.5,1c-0.3,0.3-0.7,0.5-1.2,0.8c-0.5,0.3-1,0.5-1.6,0.7C693.8,432.8,693.2,432.9,692.6,432.9z"/>
		<path class="st1" d="M706.1,432.9c-1.4,0-2.5-0.3-3.5-0.9c-0.9-0.6-1.6-1.4-2-2.5s-0.7-2.3-0.7-3.6c0-1.1,0.2-2,0.5-2.9
			s0.8-1.6,1.3-2.2c0.6-0.6,1.3-1.1,2.1-1.4c0.8-0.3,1.7-0.5,2.6-0.5c1.5,0,2.8,0.4,3.6,1.2c0.8,0.8,1.3,2,1.4,3.5
			c0,0.5,0,0.9,0,1.3c0,0.4-0.1,0.7-0.1,1h-8.6c0,0.8,0.1,1.5,0.3,2.1s0.5,1.2,0.8,1.7s0.8,0.8,1.3,1.1c0.5,0.3,1.1,0.4,1.8,0.4
			c0.7,0,1.4-0.1,2.1-0.4c0.7-0.2,1.3-0.5,1.6-0.8l0.5,1.1c-0.3,0.3-0.7,0.6-1.2,0.9c-0.5,0.3-1.1,0.5-1.8,0.7
			C707.4,432.8,706.8,432.9,706.1,432.9z M702.6,424.7h6c0-0.1,0-0.3,0-0.5c0-0.2,0-0.4,0-0.5c0-1-0.2-1.8-0.6-2.4s-1.1-0.9-2.1-0.9
			c-0.4,0-0.8,0.1-1.2,0.2c-0.4,0.1-0.7,0.4-1,0.7c-0.3,0.3-0.5,0.8-0.7,1.4C702.8,423.2,702.7,423.9,702.6,424.7z"/>
		<path class="st1" d="M715.9,431.2v-16.5l-2-0.2v-1.1l4-0.4h0l0.5,0.4v17.9l2.2,0.2v1.2h-6.8v-1.2L715.9,431.2z"/>
		<path class="st1" d="M724.8,431.2v-16.5l-2-0.2v-1.1l4-0.4h0l0.5,0.4v17.9l2.2,0.2v1.2h-6.8v-1.2L724.8,431.2z"/>
		<path class="st1" d="M738.2,432.9c-1.4,0-2.5-0.3-3.5-0.9c-0.9-0.6-1.6-1.4-2-2.5s-0.7-2.3-0.7-3.6c0-1.1,0.2-2,0.5-2.9
			s0.8-1.6,1.3-2.2c0.6-0.6,1.3-1.1,2.1-1.4s1.7-0.5,2.6-0.5c1.5,0,2.8,0.4,3.6,1.2c0.8,0.8,1.3,2,1.4,3.5c0,0.5,0,0.9,0,1.3
			c0,0.4-0.1,0.7-0.1,1h-8.6c0,0.8,0.1,1.5,0.3,2.1c0.2,0.6,0.5,1.2,0.8,1.7s0.8,0.8,1.3,1.1c0.5,0.3,1.1,0.4,1.8,0.4
			c0.7,0,1.4-0.1,2.1-0.4c0.7-0.2,1.3-0.5,1.6-0.8l0.5,1.1c-0.3,0.3-0.7,0.6-1.2,0.9c-0.5,0.3-1.1,0.5-1.8,0.7
			S738.9,432.9,738.2,432.9z M734.8,424.7h6c0-0.1,0-0.3,0-0.5c0-0.2,0-0.4,0-0.5c0-1-0.2-1.8-0.6-2.4s-1.1-0.9-2.1-0.9
			c-0.4,0-0.8,0.1-1.2,0.2c-0.4,0.1-0.7,0.4-1,0.7c-0.3,0.3-0.5,0.8-0.7,1.4C734.9,423.2,734.8,423.9,734.8,424.7z"/>
		<path class="st1" d="M748.1,431.2v-10.1l-1.8-0.4v-1.3l3.5-0.4h0.1l0.5,0.4v1l0,0.6c0.4-0.3,0.8-0.6,1.4-0.9
			c0.6-0.3,1.2-0.6,1.8-0.8s1.3-0.3,2-0.3c1.1,0,1.9,0.2,2.5,0.6c0.6,0.4,1,1,1.2,1.8s0.4,1.9,0.4,3.1v6.8l1.7,0.2v1.2h-5.9v-1.2
			l1.5-0.2v-6.7c0-0.9-0.1-1.6-0.2-2.1c-0.1-0.6-0.4-1-0.8-1.2c-0.4-0.3-0.9-0.4-1.6-0.4c-0.4,0-0.9,0.1-1.3,0.2
			c-0.5,0.1-0.9,0.3-1.3,0.5s-0.8,0.4-1.1,0.7v9.1l1.7,0.2v1.2h-5.9v-1.2L748.1,431.2z"/>
		<path class="st1" d="M770.2,432.9c-1.4,0-2.6-0.3-3.5-0.9c-0.9-0.6-1.6-1.4-2.1-2.4s-0.7-2.2-0.7-3.5c0-1,0.1-1.9,0.4-2.8
			s0.7-1.6,1.3-2.3s1.3-1.2,2.2-1.5s1.9-0.6,3-0.6c0.6,0,1.1,0,1.6,0.1s0.9,0.2,1.3,0.3s0.7,0.2,0.9,0.3l-0.1,3.7h-1.6l-0.6-2.4
			c0-0.1-0.1-0.2-0.3-0.4s-0.4-0.2-0.7-0.2s-0.5-0.1-0.8-0.1c-0.8,0-1.4,0.2-2,0.6c-0.6,0.4-1,1-1.3,1.7s-0.5,1.7-0.5,2.8
			c0,1,0.1,1.9,0.3,2.6c0.2,0.7,0.5,1.3,0.9,1.8s0.8,0.8,1.3,1.1s1,0.4,1.6,0.4c0.5,0,1,0,1.4-0.2c0.5-0.1,0.8-0.2,1.2-0.4
			c0.4-0.2,0.7-0.3,0.9-0.5l0.5,1c-0.3,0.3-0.7,0.5-1.2,0.8c-0.5,0.3-1,0.5-1.6,0.7C771.5,432.8,770.9,432.9,770.2,432.9z"/>
		<path class="st1" d="M783.7,432.9c-1.4,0-2.5-0.3-3.5-0.9c-0.9-0.6-1.6-1.4-2-2.5s-0.7-2.3-0.7-3.6c0-1.1,0.2-2,0.5-2.9
			s0.8-1.6,1.3-2.2c0.6-0.6,1.3-1.1,2.1-1.4s1.7-0.5,2.6-0.5c1.5,0,2.8,0.4,3.6,1.2c0.8,0.8,1.3,2,1.4,3.5c0,0.5,0,0.9,0,1.3
			c0,0.4-0.1,0.7-0.1,1h-8.6c0,0.8,0.1,1.5,0.3,2.1s0.5,1.2,0.8,1.7s0.8,0.8,1.3,1.1c0.5,0.3,1.1,0.4,1.8,0.4c0.7,0,1.4-0.1,2.1-0.4
			c0.7-0.2,1.3-0.5,1.6-0.8l0.5,1.1c-0.3,0.3-0.7,0.6-1.2,0.9c-0.5,0.3-1.1,0.5-1.8,0.7C785.1,432.8,784.4,432.9,783.7,432.9z
			 M780.3,424.7h6c0-0.1,0-0.3,0-0.5c0-0.2,0-0.4,0-0.5c0-1-0.2-1.8-0.6-2.4s-1.1-0.9-2.1-0.9c-0.4,0-0.8,0.1-1.2,0.2
			c-0.4,0.1-0.7,0.4-1,0.7c-0.3,0.3-0.5,0.8-0.7,1.4C780.5,423.2,780.3,423.9,780.3,424.7z"/>
		<path class="st1" d="M792.6,431.4c0-0.5,0.2-0.9,0.6-1.2s0.8-0.5,1.3-0.5c0.6,0,1,0.1,1.2,0.5c0.3,0.3,0.4,0.7,0.4,1.1
			c0,0.5-0.2,1-0.6,1.3s-0.8,0.5-1.4,0.5c-0.4,0-0.8-0.1-1.1-0.4C792.8,432.2,792.6,431.8,792.6,431.4z M795.7,411.1l-0.7,15.8h-1.6
			l-0.8-15.8H795.7z"/>
	</g>
	<rect x="46.1" y="380.2" class="st2" width="750" height="2"/>
</g>
</svg>
